<?xml version="1.0" standalone="no"?>
<svg version="1.0" xmlns="http://www.w3.org/2000/svg"
 width="1528.000000pt" height="1324.000000pt" viewBox="0 0 1528.000000 1324.000000"
 preserveAspectRatio="xMidYMid meet">
<metadata>
Created by potrace 1.15, written by Peter Selinger 2001-2017
</metadata>
<g transform="translate(0.000000,1324.000000) scale(0.100000,-0.100000)"
fill="#000000" stroke="none">
<path d="M3665 13133 c-16 -3 -35 -9 -40 -13 -6 -5 -55 -16 -110 -26 -55 -9
-104 -20 -110 -24 -5 -4 -37 -13 -70 -20 -33 -7 -67 -21 -77 -31 -9 -11 -21
-19 -27 -19 -38 0 -111 -24 -111 -36 0 -9 -12 -14 -36 -14 -40 0 -77 -16 -69
-31 4 -5 -3 -9 -14 -9 -11 0 -23 -4 -26 -10 -3 -5 -26 -10 -51 -10 -33 0 -44
-4 -44 -15 0 -24 -68 -89 -93 -90 -12 0 -21 -5 -20 -11 1 -5 -26 -16 -59 -24
-42 -9 -62 -18 -65 -31 -5 -18 -31 -29 -71 -29 -13 0 -20 -4 -17 -10 7 -12
-33 -49 -53 -50 -22 0 -93 -40 -99 -55 -3 -8 -9 -15 -15 -15 -18 0 -88 -65
-88 -82 0 -10 -4 -18 -8 -18 -5 0 -22 -11 -38 -25 -16 -14 -32 -25 -36 -25 -5
0 -8 -6 -8 -13 0 -15 -38 -40 -50 -32 -5 3 -15 -3 -22 -15 -9 -14 -23 -20 -48
-20 -50 0 -107 -18 -128 -40 -14 -15 -37 -21 -106 -25 -91 -7 -129 -16 -141
-34 -3 -6 -13 -11 -22 -11 -9 0 -35 -16 -59 -35 -23 -19 -47 -35 -53 -35 -7 0
-14 -7 -17 -15 -4 -8 -15 -15 -25 -15 -12 0 -19 -7 -19 -20 0 -13 -7 -20 -19
-20 -11 0 -27 -9 -35 -21 -8 -12 -19 -18 -25 -15 -6 4 -13 -9 -17 -31 -3 -21
-14 -47 -24 -58 -23 -27 -40 -60 -40 -80 0 -9 -9 -25 -20 -37 -11 -12 -20 -27
-20 -34 0 -7 -9 -16 -21 -19 -12 -4 -18 -12 -15 -21 3 -7 1 -16 -4 -19 -6 -4
-10 -17 -10 -29 0 -13 -11 -40 -25 -60 -15 -22 -25 -51 -25 -72 0 -27 -5 -37
-19 -41 -11 -3 -23 -20 -30 -44 -7 -22 -16 -37 -20 -34 -5 2 -14 -9 -21 -26
-7 -16 -21 -34 -32 -40 -10 -6 -23 -21 -28 -35 -5 -13 -16 -24 -24 -24 -15 0
-26 -21 -26 -52 0 -11 -8 -22 -20 -25 -11 -3 -20 -10 -20 -15 0 -5 -31 -40
-70 -78 l-70 -70 -62 0 c-35 0 -68 -4 -74 -8 -7 -4 -19 -29 -28 -57 -9 -27
-20 -59 -25 -70 -36 -86 -61 -205 -42 -205 7 0 11 -26 11 -75 0 -61 -4 -80
-19 -96 -15 -16 -21 -18 -27 -7 -9 14 -17 -10 -38 -123 -16 -82 -23 -94 -42
-78 -11 9 -14 8 -14 -5 0 -9 7 -16 16 -16 8 0 12 -5 9 -10 -4 -6 -11 -8 -16
-5 -5 4 -9 -1 -9 -9 0 -12 -10 -16 -40 -16 -26 0 -40 -5 -40 -13 0 -21 -61
-89 -75 -83 -8 3 -16 -1 -19 -9 -3 -8 0 -15 7 -18 30 -10 -99 -38 -200 -44
l-113 -6 0 -164 0 -165 53 5 c28 3 77 12 107 22 30 9 78 16 107 16 48 -1 96
16 195 70 15 8 18 5 18 -21 0 -16 5 -30 10 -30 25 0 77 -174 90 -305 14 -124
18 -147 29 -140 11 6 31 -105 31 -175 0 -34 5 -57 14 -64 9 -6 19 -45 26 -94
6 -45 19 -97 29 -115 10 -18 21 -61 25 -96 4 -38 13 -72 23 -83 9 -10 20 -41
24 -69 5 -28 15 -59 23 -68 8 -9 20 -46 26 -83 10 -56 15 -68 31 -68 16 0 19
-8 19 -50 0 -37 4 -50 15 -50 8 0 17 -14 21 -37 7 -42 20 -71 41 -91 7 -7 13
-28 13 -46 0 -54 12 -96 26 -96 9 0 14 -12 14 -36 0 -28 -3 -35 -15 -31 -8 4
-17 2 -20 -4 -4 -5 -11 -7 -16 -4 -5 4 -12 -2 -16 -12 -14 -37 -43 -49 -168
-68 -22 -3 -60 -16 -85 -28 -39 -19 -69 -23 -220 -29 -230 -8 -310 -17 -310
-34 0 -8 -6 -11 -15 -8 -34 13 -50 -32 -46 -133 1 -36 4 -43 21 -43 17 0 20
-7 20 -40 0 -33 -3 -40 -20 -40 -17 0 -20 -7 -20 -39 0 -22 4 -41 10 -43 5 -1
14 -66 19 -144 10 -141 5 -254 -10 -254 -5 0 -9 -18 -9 -40 0 -22 5 -40 10
-40 13 0 13 -186 0 -282 -5 -40 -14 -181 -19 -313 -9 -234 -6 -275 21 -259 5
3 16 -3 24 -15 11 -15 25 -21 52 -20 29 0 33 2 17 8 -16 7 -9 10 30 16 28 5
57 9 65 10 8 1 25 7 37 13 12 7 29 12 37 12 9 0 16 7 16 15 0 9 9 15 25 15
l25 0 0 160 c0 136 2 160 15 160 12 0 15 14 15 62 0 34 -3 58 -7 55 -12 -13
-33 15 -33 44 0 18 -8 34 -20 41 -29 18 -25 31 20 72 46 41 48 46 19 46 -21 0
-21 3 -15 78 6 60 13 86 34 117 24 35 34 40 70 43 34 3 42 7 42 23 0 10 -4 19
-10 19 -18 0 -11 30 14 58 25 27 25 27 128 21 87 -4 109 -9 135 -28 24 -18 41
-22 73 -19 37 3 46 0 76 -30 19 -19 34 -40 34 -48 0 -8 25 -25 55 -39 30 -13
55 -30 55 -38 0 -28 33 -44 82 -39 45 4 48 6 48 33 0 26 3 29 34 29 19 0 55 9
80 19 44 19 46 19 83 1 22 -10 40 -14 44 -9 3 5 14 0 24 -11 10 -11 25 -20 34
-20 9 0 24 -17 34 -38 18 -37 67 -72 67 -49 1 7 10 -6 22 -28 25 -48 49 -69
60 -52 5 8 12 6 22 -8 14 -19 15 -19 21 10 4 17 8 36 11 43 5 17 33 15 40 -3
4 -8 14 -15 23 -15 9 0 28 -23 46 -56 17 -31 40 -64 53 -74 12 -10 22 -25 22
-34 0 -9 5 -16 10 -16 6 0 10 -7 10 -16 0 -8 9 -37 21 -64 19 -45 20 -50 5
-78 -9 -17 -22 -35 -29 -39 -8 -4 -16 -18 -19 -29 -4 -17 -2 -20 13 -17 23 6
25 -10 4 -27 -10 -8 -15 -31 -15 -71 0 -46 -3 -59 -15 -59 -19 0 -19 -24 0
-40 8 -7 15 -19 15 -26 0 -8 10 -14 25 -14 18 0 25 -5 25 -19 0 -25 18 -36 52
-32 15 1 36 -3 47 -9 16 -8 28 -7 53 6 18 9 35 20 38 23 17 20 58 31 119 31
39 0 73 4 76 10 3 5 9 29 13 52 6 34 12 44 30 46 21 3 32 22 12 22 -5 0 -10
15 -10 34 0 19 -4 38 -10 41 -15 9 -12 32 4 38 10 4 12 0 8 -15 -5 -21 -5 -21
21 -2 41 30 32 55 -26 69 -26 7 -38 25 -16 25 6 0 1 9 -12 20 -21 17 -22 21
-9 30 24 16 65 8 63 -13 0 -12 4 -16 12 -13 8 3 19 -1 25 -9 6 -8 18 -11 26
-8 9 3 14 -1 14 -12 0 -9 13 -22 30 -28 17 -6 30 -17 30 -24 0 -7 8 -21 18
-32 72 -77 89 -98 95 -113 4 -10 16 -18 27 -18 22 0 28 16 8 22 -7 3 -8 9 -3
19 5 8 8 22 6 33 -1 10 0 30 4 44 5 19 9 22 18 13 6 -6 19 -11 29 -11 9 0 38
-20 62 -45 25 -25 52 -45 61 -45 8 0 15 -5 15 -11 0 -6 13 -22 30 -36 16 -13
30 -29 30 -34 0 -19 43 -50 70 -51 16 -1 31 -7 34 -14 3 -8 35 -28 71 -45 63
-29 70 -31 146 -24 43 4 79 11 79 16 0 5 18 9 40 9 33 0 40 -3 40 -19 0 -15
10 -21 39 -26 35 -6 40 -10 46 -43 10 -54 10 -105 1 -124 -6 -14 -2 -20 17
-27 14 -6 27 -21 31 -36 8 -30 0 -65 -15 -65 -5 0 -17 -16 -26 -35 -9 -19 -20
-35 -24 -35 -4 0 -10 -25 -14 -55 -4 -39 -13 -60 -28 -72 -13 -10 -23 -31 -25
-48 -1 -16 -11 -37 -21 -46 -15 -13 -42 -81 -43 -109 0 -3 -11 -18 -24 -33
-13 -16 -24 -40 -24 -53 0 -14 -7 -27 -16 -31 -8 -3 -20 -17 -25 -30 -7 -20
-15 -23 -51 -22 -79 3 -84 -3 -96 -93 -7 -54 -15 -83 -27 -92 -9 -7 -23 -37
-29 -67 -9 -35 -18 -54 -27 -53 -10 1 -15 -15 -17 -59 -2 -37 -8 -65 -17 -71
-20 -16 -35 -61 -35 -109 0 -36 -18 -91 -20 -62 -3 26 -20 -41 -25 -97 -4 -35
-15 -82 -26 -105 -10 -22 -21 -72 -25 -110 -4 -37 -15 -94 -25 -126 -10 -32
-22 -101 -25 -153 -4 -53 -10 -90 -14 -83 -9 13 -14 -1 -25 -64 -5 -32 -10
-38 -28 -35 -15 2 -27 16 -39 48 -9 25 -17 39 -17 33 -1 -21 -22 -15 -28 7 -3
12 -14 20 -26 20 -11 0 -38 19 -61 41 -22 23 -42 37 -44 30 -5 -14 -82 -15
-82 -1 0 6 -4 10 -9 10 -12 0 -71 -59 -71 -71 0 -5 -4 -9 -9 -9 -5 0 -23 -14
-40 -31 -26 -26 -31 -38 -31 -80 0 -36 4 -49 15 -49 18 0 65 -47 65 -65 0 -8
7 -15 16 -15 14 0 15 -15 9 -137 -12 -244 -11 -333 3 -342 8 -5 12 -27 11 -62
-2 -40 5 -68 24 -111 15 -31 27 -62 27 -69 0 -14 51 -73 65 -75 6 -1 17 -19
24 -40 8 -22 18 -41 22 -44 4 -3 10 -40 14 -83 5 -55 11 -77 21 -77 9 0 14 12
14 34 0 25 5 36 18 40 18 6 42 57 42 92 0 13 3 15 8 6 6 -9 13 0 22 28 16 48
33 51 79 12 30 -25 34 -34 36 -84 4 -80 12 -100 35 -88 24 13 48 4 56 -22 3
-11 8 -17 11 -14 3 3 13 1 23 -4 12 -7 16 -19 14 -40 -3 -29 -34 -74 -34 -51
0 6 -6 11 -14 11 -8 0 -17 11 -20 25 -4 16 -13 25 -26 25 -12 0 -20 7 -21 18
0 9 -10 -2 -22 -25 -18 -38 -25 -43 -54 -43 -43 0 -85 22 -111 57 -17 23 -22
25 -36 14 -9 -7 -16 -10 -16 -5 0 4 -15 -6 -32 -23 -38 -35 -108 -73 -137 -73
-35 0 -155 -41 -142 -49 17 -11 -89 -22 -130 -14 -19 3 -40 13 -48 20 -40 41
-106 45 -286 18 -63 -10 -72 -14 -55 -25 11 -7 6 -10 -19 -10 -18 0 -51 -5
-71 -11 -31 -10 -44 -9 -70 5 -18 9 -39 16 -47 16 -8 0 -32 18 -53 40 -21 22
-43 40 -49 40 -16 0 -13 20 3 26 12 4 13 92 11 547 -3 670 -4 659 115 676 64
9 65 9 92 -20 21 -21 37 -29 63 -29 19 0 35 -4 35 -9 0 -17 38 -22 110 -15 51
5 70 10 70 21 0 10 6 12 19 8 30 -9 56 23 58 73 1 25 -4 50 -12 60 -48 55 -71
80 -77 81 -5 0 -9 4 -10 9 -4 14 -51 33 -58 23 -3 -6 -29 -11 -58 -12 -44 -2
-55 1 -68 19 -14 20 -24 22 -104 22 -84 0 -89 -1 -92 -22 -2 -13 -8 37 -12
110 -7 111 -11 134 -26 142 -9 5 -20 23 -23 39 -4 16 -17 40 -31 53 -23 21
-25 31 -27 123 -2 109 6 155 26 155 7 0 16 17 21 38 4 20 8 40 9 45 2 4 3 12
4 17 0 6 10 10 21 10 15 0 20 7 20 25 0 14 -4 25 -10 25 -5 0 -6 8 -2 18 11
26 36 62 44 62 3 0 19 13 35 28 15 16 35 31 43 35 13 5 13 7 0 16 -12 8 -5 11
28 11 31 0 42 4 42 15 0 13 20 15 120 15 113 0 120 1 120 20 0 18 7 20 80 20
66 0 78 2 74 15 -4 9 -19 15 -41 15 -28 0 -43 8 -71 37 -22 23 -37 33 -40 25
-6 -18 -82 -16 -82 3 0 11 -11 15 -40 15 -22 0 -40 3 -40 8 0 4 -35 8 -77 10
-42 1 -80 7 -84 13 -3 6 -48 12 -105 14 -55 1 -110 7 -124 13 -14 6 -68 16
-120 22 -113 12 -242 34 -258 44 -6 3 -95 7 -197 8 -178 1 -187 0 -201 -20 -8
-11 -24 -22 -36 -24 -13 -2 -28 -14 -35 -28 -7 -13 -20 -30 -29 -37 -15 -11
-10 -19 49 -78 37 -35 67 -69 67 -74 0 -5 7 -14 16 -22 9 -7 13 -21 10 -33 -3
-12 1 -32 8 -45 8 -14 11 -41 8 -68 -3 -25 -1 -48 4 -52 22 -16 64 -90 64
-113 0 -14 6 -43 13 -64 21 -60 12 -160 -18 -219 -29 -58 -34 -149 -10 -181 8
-10 15 -40 15 -65 0 -28 5 -49 13 -52 7 -2 18 -25 25 -51 13 -52 31 -72 85
-101 20 -11 37 -23 37 -27 0 -5 8 -8 18 -8 9 0 50 -32 90 -70 62 -60 76 -80
93 -133 12 -34 25 -66 30 -71 5 -6 9 -21 9 -35 0 -13 8 -33 17 -43 9 -10 18
-42 21 -73 2 -30 8 -55 13 -55 5 0 9 -22 9 -49 0 -28 5 -53 10 -56 6 -3 10
-15 10 -26 0 -11 7 -22 15 -25 23 -9 23 -564 0 -564 -11 0 -15 -11 -15 -40 0
-28 4 -40 15 -40 8 0 25 -11 39 -25 19 -18 36 -25 66 -25 29 0 40 -4 40 -15 0
-8 -8 -15 -19 -15 -11 0 -21 -9 -24 -21 -4 -17 -11 -20 -28 -16 -24 6 -89 -16
-89 -31 0 -5 -18 -17 -40 -27 -51 -23 -58 -49 -37 -135 8 -36 19 -87 22 -114
9 -66 21 -96 40 -96 8 0 15 -4 15 -10 0 -5 9 -10 20 -10 11 0 20 -5 20 -11 0
-5 15 -16 34 -24 18 -8 36 -21 39 -30 4 -8 17 -15 31 -15 13 0 51 -14 85 -30
33 -17 75 -33 92 -37 17 -3 33 -12 36 -19 3 -8 15 -14 27 -14 13 0 49 -27 95
-74 41 -41 77 -75 80 -74 18 2 24 -3 12 -11 -10 -6 -6 -13 18 -27 22 -13 29
-23 25 -36 -3 -12 0 -18 10 -18 9 0 16 -8 16 -19 0 -10 9 -21 20 -24 12 -3 20
-14 20 -26 0 -11 13 -35 29 -53 16 -18 31 -42 33 -53 2 -11 9 -19 16 -18 6 2
20 -9 30 -22 11 -14 24 -25 29 -25 4 0 14 -9 21 -20 7 -11 19 -20 27 -20 8 0
15 -4 15 -9 0 -5 9 -11 21 -14 12 -3 18 -10 14 -16 -4 -7 6 -14 24 -17 17 -4
37 -16 45 -29 8 -12 29 -25 47 -29 18 -3 41 -14 52 -24 14 -12 37 -17 81 -18
72 -1 125 -11 146 -29 8 -7 24 -15 35 -17 10 -2 29 -19 41 -38 12 -19 33 -45
46 -58 72 -69 88 -89 88 -110 0 -12 8 -26 17 -29 17 -7 41 -25 69 -51 8 -7 14
-33 14 -56 0 -24 7 -57 16 -75 31 -63 44 -375 16 -403 -6 -6 -18 -7 -29 -3
-18 8 -27 11 -40 14 -5 1 -1 6 7 11 13 9 13 10 0 10 -19 0 -95 70 -78 70 7 1
0 7 -17 15 -41 19 -58 35 -72 67 -8 17 -18 26 -26 22 -8 -3 -17 2 -20 10 -4 9
-12 16 -20 16 -7 0 -23 11 -35 25 -12 14 -27 25 -33 25 -7 0 -22 11 -35 25
-13 14 -32 25 -44 25 -13 0 -24 9 -30 25 -5 14 -16 25 -24 25 -8 0 -18 9 -21
20 -3 11 -13 20 -21 20 -18 0 -74 53 -74 69 0 6 -6 11 -12 11 -7 0 -33 16 -57
35 -24 19 -48 35 -52 35 -5 0 -22 13 -39 30 -17 16 -42 33 -55 36 -14 3 -25
12 -25 20 0 7 -9 18 -20 24 -11 6 -20 17 -20 25 0 16 -1 16 -38 20 -25 3 -43
15 -22 15 7 0 1 9 -13 20 -14 11 -30 20 -36 20 -6 0 -11 9 -11 20 0 16 -7 20
-37 20 -34 0 -40 4 -57 40 -13 27 -26 40 -39 40 -24 0 -147 126 -147 151 0 5
-7 9 -15 9 -9 0 -18 7 -22 16 -7 19 -51 64 -62 64 -4 0 -35 27 -69 60 -33 33
-65 60 -70 60 -5 0 -14 -11 -20 -25 -20 -44 -61 -31 -81 25 -13 40 -89 122
-104 113 -6 -3 -7 -1 -3 5 9 15 -15 64 -29 58 -11 -4 -66 53 -88 90 -4 8 -15
14 -22 14 -8 0 -15 7 -15 15 0 8 -6 12 -13 9 -7 -2 -24 7 -36 20 -13 14 -28
23 -32 20 -5 -3 -9 1 -9 9 0 7 -20 31 -43 53 -24 21 -49 49 -56 62 -8 14 -21
22 -38 22 -40 0 -100 -46 -113 -86 -7 -19 -16 -32 -21 -29 -5 4 -9 2 -9 -4 0
-5 6 -11 13 -14 9 -3 8 -12 -6 -35 -16 -28 -17 -70 -16 -532 1 -387 4 -504 14
-514 19 -19 28 -196 20 -407 -6 -158 -10 -189 -22 -189 -13 0 -14 -12 -8 -77
4 -43 11 -80 16 -81 5 -2 9 -66 9 -143 l0 -139 2769 0 2769 0 0 43 c-1 23 3
57 7 76 6 31 9 32 18 16 6 -11 10 -45 10 -77 l0 -58 2184 0 2183 0 1 23 c1 21
1 21 9 -3 8 -24 8 -24 9 -2 1 14 7 22 19 22 11 0 27 9 37 20 10 11 24 20 32
20 17 0 17 15 -3 53 -32 61 -34 66 -24 72 6 3 10 17 10 31 0 13 4 24 9 24 4 0
6 23 3 50 -3 33 -1 50 7 50 6 0 11 17 11 39 0 29 -5 41 -17 44 -10 3 1 5 25 6
23 0 42 5 42 10 0 5 22 17 50 26 27 9 53 21 57 28 3 6 6 45 4 87 -1 67 2 81
24 114 14 20 25 43 25 51 0 15 56 75 71 75 5 0 9 6 9 14 0 7 9 16 20 19 23 6
40 44 40 88 0 38 16 55 61 64 67 13 68 14 64 47 -2 17 -8 34 -13 37 -5 3 -11
15 -13 26 -5 24 -52 33 -75 14 -10 -8 -14 -8 -14 0 0 6 -6 11 -14 11 -8 0 -18
-19 -25 -45 -7 -29 -19 -48 -34 -56 -37 -19 -77 -69 -77 -95 0 -16 -8 -28 -25
-36 -14 -6 -25 -15 -25 -20 0 -5 -11 -13 -24 -18 -25 -9 -55 -50 -37 -50 13 0
-23 -100 -40 -111 -8 -5 -35 -9 -61 -9 -37 0 -51 -5 -60 -20 -7 -11 -20 -20
-28 -20 -8 0 -24 -18 -34 -40 -11 -22 -25 -40 -32 -40 -7 0 -19 -9 -27 -20
-13 -19 -17 -19 -53 -6 -33 11 -46 11 -89 -1 -65 -19 -68 -22 -54 -39 9 -12 6
-14 -19 -14 -17 0 -32 5 -34 11 -5 16 -134 2 -152 -17 -17 -17 -83 -19 -88 -2
-4 11 -46 -13 -92 -54 -12 -12 -36 -18 -64 -18 -34 0 -43 -3 -39 -14 4 -11 -9
-16 -55 -21 -52 -6 -64 -4 -89 14 -22 16 -43 21 -92 21 -36 0 -80 6 -98 14
-19 8 -54 16 -79 19 -25 2 -72 19 -104 36 -32 17 -65 31 -72 31 -8 0 -14 9
-14 19 0 15 -10 21 -40 26 -25 4 -40 12 -40 21 0 8 -8 14 -19 14 -24 0 -38 18
-44 57 -5 29 -36 65 -100 113 -10 8 -28 23 -38 33 -11 9 -26 17 -34 17 -8 0
-19 17 -26 40 -13 43 -31 51 -49 23 -10 -16 -11 -15 -7 5 3 12 1 20 -3 17 -4
-3 -24 11 -45 32 -27 27 -33 38 -23 44 10 7 10 11 0 21 -6 6 -12 22 -12 35 0
13 -6 23 -14 23 -8 0 -21 18 -30 40 -9 22 -20 40 -26 40 -5 0 -10 8 -10 19 0
10 -7 25 -16 32 -13 11 -15 26 -11 75 5 70 15 94 28 73 6 -10 10 -7 17 11 8
20 6 26 -7 31 -28 11 -71 -2 -71 -20 0 -26 -5 -28 -62 -21 -75 10 -107 -6
-138 -69 -27 -56 -35 -61 -71 -54 -17 3 -31 19 -49 55 -34 68 -76 87 -132 58
-21 -11 -42 -19 -47 -17 -5 1 -20 -10 -34 -25 -19 -21 -36 -28 -62 -28 -32 0
-35 2 -29 24 6 27 -17 56 -46 56 -24 0 -34 17 -32 54 2 17 -11 56 -27 90 -17
34 -35 83 -41 111 -6 27 -19 59 -29 70 -10 11 -26 41 -35 68 -10 26 -22 47
-27 47 -5 0 -10 21 -10 48 -1 26 -4 61 -8 77 -4 17 -2 49 3 72 11 50 22 53
184 45 85 -4 112 -8 112 -18 0 -21 71 -17 97 5 11 10 27 36 35 59 8 22 26 50
41 62 15 12 27 27 27 35 0 7 14 26 30 42 17 15 30 32 30 36 0 5 7 15 15 23 8
9 15 30 15 47 0 23 8 40 28 57 16 14 31 25 33 25 11 0 35 31 51 68 17 36 17
37 -2 37 -11 0 -20 -5 -20 -12 0 -9 -3 -9 -12 0 -16 16 -28 15 -28 -2 0 -15
-10 -20 -67 -31 -17 -3 -34 -13 -37 -21 -3 -8 -14 -14 -24 -14 -10 0 -27 -9
-37 -20 -9 -10 -32 -24 -51 -30 -18 -6 -36 -19 -39 -30 -3 -10 -15 -20 -25
-23 -12 -3 -20 -14 -20 -27 0 -13 -8 -24 -19 -27 -11 -3 -21 -13 -24 -22 -2
-10 -18 -21 -36 -24 -18 -4 -31 -13 -31 -22 0 -8 -3 -14 -7 -13 -5 0 -16 -2
-26 -7 -24 -10 -87 3 -87 19 0 8 -14 19 -30 25 -17 5 -33 17 -36 26 -3 8 -12
15 -19 15 -8 0 -22 10 -32 23 -26 33 -68 42 -85 19 -26 -37 -78 -47 -184 -34
-65 7 -100 16 -106 25 -4 8 -23 18 -43 21 -39 8 -65 38 -65 76 0 56 -9 67 -66
79 -78 18 -95 43 -88 132 3 38 1 84 -5 102 -15 46 -15 73 3 151 9 40 24 77 36
88 14 13 20 32 20 59 0 32 4 41 24 48 19 8 24 19 29 67 4 40 12 63 25 74 11 8
22 23 25 32 4 10 16 18 27 18 11 0 23 7 26 15 4 8 14 15 24 15 11 0 21 4 24 9
4 5 24 12 46 16 23 4 40 12 40 20 0 7 14 18 30 25 17 7 30 19 30 26 0 8 8 14
18 14 10 0 22 12 29 30 14 38 45 50 98 38 52 -12 123 -1 153 23 14 10 31 19
39 19 7 0 16 6 19 14 3 8 20 20 37 27 34 14 140 87 145 101 2 4 10 8 18 8 8 0
14 6 14 14 0 8 8 17 17 20 14 6 15 9 4 15 -7 5 -12 12 -11 17 1 5 -25 15 -57
23 -32 8 -60 17 -63 20 -11 14 -79 31 -122 31 -38 0 -46 -4 -56 -25 -7 -14
-12 -33 -12 -41 0 -8 -11 -20 -25 -26 -23 -10 -23 -12 -7 -24 15 -12 15 -15 2
-23 -8 -5 -17 -8 -21 -5 -11 7 -26 -19 -33 -59 -5 -28 -12 -37 -26 -37 -13 0
-20 -7 -20 -20 0 -12 -10 -25 -22 -30 -13 -5 -32 -17 -44 -25 -19 -14 -21 -14
-23 2 -4 31 -9 87 -10 121 -1 24 -5 32 -20 32 -21 0 -35 38 -25 65 4 9 -2 28
-14 44 -11 16 -30 56 -41 90 -11 34 -27 68 -35 76 -17 17 -46 20 -46 5 0 -15
-50 -12 -51 3 0 6 -2 20 -4 29 -2 10 7 30 18 45 16 20 23 43 24 83 1 43 5 54
17 52 8 -1 22 10 31 27 8 17 23 34 32 40 27 15 3 34 -31 25 -18 -4 -33 -19
-44 -40 -16 -34 -32 -45 -32 -22 0 6 -7 4 -18 -5 -24 -22 -54 -22 -50 0 2 13
-4 17 -27 17 -22 1 -30 6 -30 19 0 10 -8 24 -18 31 -9 7 -17 23 -17 35 0 11
-5 21 -11 21 -6 0 -8 8 -4 19 3 10 0 31 -6 47 -10 27 -12 28 -19 8 -4 -11 -20
-28 -34 -38 -15 -9 -32 -27 -37 -40 -6 -12 -25 -27 -42 -32 -20 -5 -37 -20
-45 -36 -7 -16 -17 -28 -23 -28 -5 0 -9 -7 -9 -16 0 -8 -4 -13 -9 -10 -4 3
-17 -1 -27 -9 -10 -8 -26 -15 -36 -15 -12 0 -15 -6 -10 -22 5 -20 3 -21 -10
-10 -19 15 -13 44 13 68 10 9 19 26 19 36 0 10 6 21 14 24 8 3 17 25 21 50 3
25 14 49 24 56 10 7 21 22 24 33 11 37 18 148 10 154 -4 3 -13 15 -19 26 -6
11 -24 22 -40 25 -22 4 -34 16 -51 50 -13 25 -21 50 -19 56 2 6 -12 19 -32 28
-21 10 -44 22 -52 26 -8 4 -16 17 -18 29 -2 12 -16 31 -32 42 -15 12 -31 35
-34 51 -4 18 -14 32 -26 35 -11 3 -20 12 -20 19 0 8 -10 14 -22 14 -16 0 -31
13 -48 40 -13 22 -29 40 -35 40 -7 0 -20 18 -31 40 -10 22 -26 40 -34 40 -9 0
-34 18 -55 40 -21 22 -48 40 -58 40 -12 0 -17 5 -14 14 10 27 -64 72 -147 91
-15 3 -26 8 -23 12 8 8 -92 73 -112 73 -32 0 -51 -33 -51 -89 0 -31 4 -50 10
-46 11 7 25 -39 15 -54 -3 -6 10 -25 30 -43 19 -18 35 -38 35 -45 0 -6 8 -18
18 -25 10 -7 31 -39 46 -70 14 -32 31 -58 37 -58 5 0 26 -7 46 -15 29 -12 33
-18 24 -29 -10 -11 -8 -17 6 -25 16 -9 16 -10 -4 -11 -26 0 -28 -12 -23 -113
2 -48 -1 -62 -19 -78 -11 -10 -25 -19 -30 -19 -20 0 -32 -37 -21 -65 5 -14 10
-42 10 -61 0 -22 6 -37 15 -40 21 -8 19 -24 -2 -24 -11 0 -26 -17 -37 -42 -11
-23 -21 -37 -24 -30 -10 30 -19 7 -14 -38 3 -38 1 -50 -9 -50 -8 -1 -22 -17
-31 -37 -17 -36 -17 -36 9 -56 20 -16 24 -26 20 -53 -3 -20 0 -39 8 -51 8 -10
15 -30 15 -45 0 -26 -3 -28 -38 -28 -44 0 -82 -23 -82 -49 0 -11 -9 -29 -19
-42 -13 -17 -17 -33 -14 -55 3 -17 -4 -73 -16 -123 -12 -50 -19 -96 -16 -101
12 -19 -35 -37 -85 -32 -39 3 -55 1 -70 -13 -19 -17 -20 -17 -30 9 -5 15 -10
35 -10 45 0 27 -21 41 -62 41 -24 0 -38 5 -38 13 0 7 -16 19 -36 26 -30 11
-38 11 -45 0 -17 -28 -6 -54 26 -60 13 -3 21 -14 23 -31 2 -15 10 -32 18 -38
18 -16 18 -87 0 -106 -8 -8 -26 -14 -40 -14 -16 0 -26 -6 -26 -15 0 -24 -92
-20 -115 5 -17 19 -17 21 0 40 9 10 27 18 39 17 19 -2 21 4 24 56 2 35 -1 57
-8 57 -5 0 -10 7 -10 16 0 8 -4 13 -9 9 -13 -7 -41 34 -41 62 0 12 -10 29 -22
37 l-22 16 24 50 c16 31 32 50 43 50 11 0 17 8 17 25 0 23 4 25 40 25 33 0 40
-3 40 -20 0 -17 7 -20 40 -20 38 0 40 2 40 30 0 28 -2 30 -40 30 -29 0 -40 4
-40 15 0 19 -76 21 -83 3 -2 -8 -15 0 -32 20 -17 20 -33 31 -43 27 -8 -3 -25
6 -40 20 -21 21 -26 37 -29 98 -3 47 1 89 10 120 14 43 14 48 -2 60 -29 20
-42 55 -35 92 l6 34 -33 -12 c-19 -7 -37 -16 -41 -21 -8 -12 -40 13 -32 25 3
5 -6 9 -20 9 -23 0 -26 4 -26 35 0 34 1 35 40 35 22 0 40 -4 40 -10 0 -5 18
-10 40 -10 22 0 40 4 40 9 0 6 19 12 43 14 l42 4 -44 1 -43 2 5 77 c3 48 2 62
-3 38 l-7 -40 -3 35 c-2 19 -5 60 -7 90 -11 176 -15 200 -34 200 -15 0 -19 -8
-20 -42 -1 -24 -3 -35 -6 -25 -3 12 -15 17 -44 17 l-39 0 0 100 0 100 33 0
c17 0 42 3 55 6 20 6 22 3 22 -34 0 -30 -4 -42 -17 -45 -10 -3 1 -5 25 -6 39
-1 42 -3 43 -28 1 -28 1 -28 11 5 6 17 15 32 19 32 5 0 9 18 9 40 0 29 -4 40
-15 40 -11 0 -15 11 -15 40 0 33 -3 40 -20 40 -17 0 -20 7 -20 40 0 29 4 40
15 40 8 0 15 5 15 10 0 6 -18 10 -40 10 -29 0 -40 4 -40 15 0 11 -13 15 -54
15 -58 0 -76 -11 -56 -35 10 -12 9 -15 -4 -15 -12 0 -16 -10 -16 -40 0 -29 -4
-40 -15 -40 -8 0 -15 -7 -15 -15 0 -25 -49 -65 -80 -65 -25 0 -32 -6 -46 -37
-14 -35 -14 -42 0 -83 19 -52 20 -90 6 -141 -18 -63 -35 -68 -80 -24 -22 22
-40 48 -40 58 0 16 -5 18 -38 12 -30 -5 -42 -2 -54 12 -22 24 -43 116 -29 121
6 2 11 26 11 53 0 35 4 51 15 55 8 4 15 17 15 30 0 15 6 24 15 24 19 0 19 19
0 26 -9 4 -15 19 -15 40 0 33 -21 47 -35 24 -3 -5 -15 -10 -26 -10 -14 0 -19
-7 -19 -26 0 -26 -20 -54 -39 -54 -15 0 -14 -77 2 -83 8 -3 7 -10 -7 -26 -15
-16 -31 -21 -68 -21 -46 0 -48 1 -48 28 0 34 -23 68 -38 58 -15 -9 -16 -36 -2
-36 6 0 10 -18 10 -40 0 -36 -2 -40 -25 -40 -15 0 -25 6 -25 14 0 16 -89 28
-104 14 -6 -4 -15 -23 -20 -40 -6 -18 -21 -37 -33 -43 -13 -5 -23 -13 -23 -17
0 -5 -13 -8 -30 -8 -16 0 -30 -4 -30 -9 0 -5 -20 -29 -44 -55 -37 -38 -51 -46
-80 -46 -54 0 -84 16 -100 53 -8 19 -19 38 -26 42 -9 6 -9 9 -1 15 7 4 -5 14
-29 26 -24 11 -40 26 -40 37 0 28 -14 19 -33 -23 -23 -48 -17 -69 25 -94 19
-11 28 -21 21 -23 -7 -3 -13 -11 -13 -19 0 -19 -19 -18 -26 1 -4 11 -21 15
-56 15 l-49 0 3 38 c2 30 7 38 26 40 38 6 24 22 -18 22 -22 0 -40 -4 -40 -10
0 -5 -9 -10 -20 -10 -17 0 -20 7 -20 51 0 59 32 124 57 115 8 -3 24 1 36 9 12
8 29 15 39 15 10 0 27 13 39 29 12 16 27 27 34 25 7 -3 20 18 34 55 20 56 41
87 41 62 0 -6 5 -11 10 -11 6 0 10 15 10 33 0 46 28 69 90 75 49 4 63 14 38
26 -10 5 -10 7 0 12 6 3 12 12 12 19 0 7 7 15 15 19 8 3 15 11 15 19 0 7 29
24 65 38 36 13 65 28 65 33 0 17 55 95 68 96 6 0 12 4 12 10 0 5 23 17 51 27
41 14 55 25 65 50 8 17 28 42 46 54 18 13 35 26 38 29 3 3 30 14 60 24 66 24
84 39 99 89 7 20 19 37 27 37 8 0 14 6 14 14 0 8 16 17 37 21 52 9 72 22 83
51 6 14 15 22 21 19 5 -4 23 7 40 24 28 30 59 41 59 21 0 -20 26 -9 53 21 15
17 27 40 27 50 0 21 16 26 22 7 7 -21 37 -1 31 22 -8 30 -24 36 -40 15 -12
-17 -13 -17 -13 -2 0 39 -36 57 -111 57 -56 0 -76 4 -96 20 -32 25 -54 25 -86
0 -29 -23 -69 -26 -86 -7 -8 11 -5 17 14 27 14 8 23 20 21 27 -3 7 1 13 9 13
10 0 15 10 15 28 0 16 9 39 19 51 20 23 24 23 290 35 46 2 88 9 94 15 6 6 35
11 63 11 29 0 56 5 59 10 3 6 15 10 26 10 11 0 23 10 29 24 4 13 20 26 34 30
14 3 26 12 26 20 0 7 15 19 33 27 17 7 43 21 56 31 13 10 30 18 39 18 8 0 33
9 56 19 23 11 63 25 89 32 27 6 54 18 61 25 14 13 69 19 148 16 43 -2 47 -4
57 -35 13 -37 1 -125 -19 -137 -8 -5 -4 -9 11 -13 23 -6 43 4 45 23 1 6 2 20
3 33 1 18 10 25 44 35 55 17 93 7 110 -26 17 -36 57 -38 129 -4 41 19 60 34
63 50 3 12 7 32 10 45 3 12 19 29 37 38 18 9 32 22 30 29 -1 7 2 18 7 24 6 7
13 51 17 99 6 82 5 87 -13 87 -11 0 -20 -6 -21 -12 -6 -48 -16 -78 -27 -78 -6
0 -20 -9 -30 -20 -10 -11 -26 -20 -37 -20 -11 0 -18 7 -18 20 0 11 -7 20 -15
20 -41 0 -46 122 -7 177 12 17 22 36 22 43 0 7 11 25 25 42 14 16 25 37 25 47
0 9 9 24 20 34 11 9 23 31 27 47 3 17 14 35 24 41 11 5 19 19 19 29 0 13 7 20
20 20 11 0 20 6 20 13 0 8 13 33 30 55 33 46 38 73 16 91 -11 9 -18 6 -36 -18
-11 -17 -34 -38 -51 -48 -16 -10 -37 -35 -46 -55 -11 -24 -24 -38 -35 -38 -11
0 -18 -7 -18 -19 0 -21 -23 -45 -33 -34 -4 3 -7 -3 -7 -13 0 -31 -23 -72 -42
-78 -11 -2 -18 -14 -18 -30 0 -15 -12 -37 -32 -55 -36 -33 -43 -36 -53 -21 -3
5 -14 10 -23 10 -17 0 -72 60 -72 78 0 5 -11 15 -25 22 -14 7 -25 17 -25 21 0
4 -25 33 -55 65 -146 155 -152 163 -135 193 5 11 10 38 10 60 0 23 4 41 8 41
9 0 32 59 32 82 0 9 6 18 13 21 20 7 47 70 47 107 0 45 36 121 55 114 8 -4 15
-2 15 4 0 6 -5 12 -12 14 -19 7 68 86 112 104 22 9 40 21 40 28 0 13 55 46 78
46 20 0 82 42 82 55 0 6 9 16 20 23 11 7 20 19 20 26 0 8 10 17 23 19 13 3 8
5 -15 6 -21 0 -38 6 -38 11 0 6 -20 10 -45 10 -25 0 -45 3 -45 8 0 4 -72 7
-160 7 -88 1 -160 -3 -160 -7 0 -14 -86 -9 -124 7 -28 12 -36 21 -36 40 0 22
-4 25 -40 25 -22 0 -40 5 -40 10 0 6 -18 10 -40 10 -22 0 -40 4 -40 9 0 13
-79 19 -84 6 -8 -19 -26 20 -26 58 0 20 -4 37 -10 37 -5 0 -10 18 -10 40 0 22
3 40 8 40 4 0 6 18 4 40 -3 26 -9 40 -18 40 -18 0 -19 66 -1 73 6 3 -3 6 -20
6 -32 1 -33 3 -33 41 0 29 -4 40 -15 40 -23 0 -18 16 13 42 24 20 27 29 24 71
-4 42 -2 47 17 47 17 0 21 6 21 34 0 19 5 38 10 41 21 13 11 77 -15 101 -14
13 -25 30 -25 38 0 10 -12 16 -37 18 -37 3 -38 4 -41 46 -3 42 -3 42 -43 42
-21 0 -39 4 -39 9 0 5 -14 23 -31 40 -26 26 -38 31 -80 31 -29 0 -49 4 -49 11
0 6 -11 20 -25 31 -14 11 -25 24 -25 29 0 5 11 9 25 9 14 0 25 5 25 10 0 6
-18 10 -40 10 -33 0 -40 3 -40 20 0 18 -7 20 -79 20 -54 0 -81 4 -83 12 -3 9
-41 12 -139 11 -125 -1 -136 0 -157 20 -13 12 -25 21 -28 20 -2 -2 -20 -3 -39
-3 -28 0 -35 4 -35 20 0 12 7 20 17 20 14 0 14 2 -2 20 -12 13 -31 20 -57 20
-21 0 -38 5 -38 10 0 6 -16 10 -34 10 -29 0 -43 9 -80 48 l-46 47 0 -37 c0
-21 -4 -38 -10 -38 -6 0 -10 33 -10 79 0 79 0 80 -27 83 -23 2 -29 8 -31 36
-3 30 -6 32 -40 33 -20 0 -31 3 -24 6 7 2 12 22 12 45 0 39 1 39 33 36 31 -3
32 -2 35 40 2 23 7 42 13 42 5 0 9 18 9 40 0 33 3 40 20 40 11 0 20 5 20 10 0
6 33 10 79 10 79 0 80 0 83 28 l3 27 118 3 c95 2 117 5 117 17 0 12 16 15 78
15 76 0 170 28 159 48 -3 4 22 8 56 10 102 4 158 13 164 28 2 7 20 18 39 24
19 7 32 15 29 20 -3 4 12 11 32 15 21 4 54 20 74 36 20 16 41 29 47 29 5 0 15
14 22 30 7 17 25 41 40 54 28 23 60 97 60 136 0 11 5 20 11 20 6 0 7 8 3 23
-15 42 -11 72 12 100 13 16 24 33 24 39 0 6 7 19 16 29 15 17 23 74 11 85 -3
3 -23 12 -44 19 -21 8 -37 19 -35 26 1 6 -5 17 -15 24 -25 18 -12 27 46 33 63
6 124 -5 115 -20 -5 -8 -1 -9 10 -5 10 4 33 7 52 7 27 0 34 4 34 20 0 11 7 20
15 20 11 0 15 10 14 38 -2 58 -13 86 -39 99 -14 7 -24 17 -22 23 1 5 -5 10
-13 10 -24 0 -66 23 -62 34 2 6 -22 21 -52 34 -59 25 -227 43 -240 26 -3 -5
-18 -15 -33 -21 -30 -14 -36 -44 -19 -99 5 -16 12 -41 15 -57 4 -15 16 -37 27
-48 17 -17 19 -25 11 -44 -7 -16 -8 -35 -1 -57 15 -54 11 -115 -9 -135 -11
-10 -22 -26 -25 -36 -4 -11 -16 -21 -27 -24 -11 -3 -20 -11 -20 -19 0 -7 -10
-19 -22 -25 -13 -7 -42 -31 -65 -55 -22 -24 -48 -44 -57 -44 -9 0 -16 -4 -16
-9 0 -6 -9 -9 -19 -8 -11 0 -17 5 -15 9 3 4 -6 8 -20 8 -14 0 -26 5 -26 10 0
6 -9 20 -20 32 -19 21 -20 21 -40 3 -20 -18 -20 -18 -20 6 -1 23 -2 22 -29
-11 -17 -20 -25 -37 -19 -41 5 -4 3 -13 -8 -23 -9 -10 -20 -13 -23 -8 -3 5
-57 8 -120 8 -83 -1 -115 2 -118 12 -3 6 -11 12 -18 12 -8 0 -14 17 -17 47 -3
38 0 47 14 51 21 5 23 18 6 26 -10 5 -10 7 0 12 6 3 12 10 12 14 0 5 11 20 25
34 14 14 28 39 31 56 4 16 11 30 16 30 5 0 16 16 24 35 8 19 18 35 23 35 5 0
12 8 15 18 12 33 35 67 70 106 20 21 36 45 36 52 0 8 6 14 14 14 7 0 24 15 37
34 13 19 27 32 31 30 4 -3 18 2 30 10 13 8 45 20 71 26 26 5 65 21 85 34 32
21 44 23 89 17 l51 -7 6 34 c9 57 -18 84 -107 105 -87 21 -136 16 -183 -20
-17 -12 -37 -23 -44 -23 -6 0 -21 -11 -32 -25 -11 -14 -26 -25 -34 -25 -8 0
-14 -6 -14 -13 0 -8 -18 -19 -39 -26 -26 -7 -46 -22 -60 -44 -38 -59 -56 -83
-78 -107 -13 -13 -23 -30 -23 -37 0 -7 -11 -13 -24 -13 -17 0 -47 -23 -98 -75
-40 -41 -73 -78 -73 -83 0 -14 -39 -82 -47 -82 -5 0 -8 -7 -8 -15 0 -9 -6 -18
-14 -21 -8 -3 -20 -19 -26 -35 -7 -16 -20 -29 -29 -29 -16 -1 -77 -114 -83
-153 -3 -18 -23 -25 -23 -8 0 5 -3 13 -7 17 -5 4 -8 -2 -8 -14 0 -19 -6 -22
-36 -22 -27 0 -37 -5 -41 -20 -4 -16 -14 -20 -44 -20 -28 0 -39 -4 -39 -15 0
-12 -20 -15 -120 -15 -73 0 -120 4 -120 10 0 6 -18 10 -40 10 -33 0 -40 3 -40
20 0 17 -7 20 -40 20 -22 0 -40 5 -40 11 0 5 -4 8 -9 4 -12 -7 -26 14 -26 40
0 11 -14 28 -32 40 -17 11 -36 30 -42 43 -6 13 -24 30 -39 39 -27 15 -28 20
-24 65 4 44 3 48 -17 48 -12 0 -19 4 -16 10 3 5 -3 15 -15 22 -11 7 -20 21
-20 30 0 13 -8 18 -25 18 -15 0 -25 6 -25 14 0 7 -7 19 -15 26 -11 9 -15 35
-15 106 0 85 2 94 19 94 15 0 19 11 25 61 8 84 8 101 -4 94 -6 -4 -10 11 -10
39 0 24 5 46 11 48 7 2 11 67 12 196 1 129 6 195 13 200 17 11 42 64 49 107 4
22 11 45 15 50 4 6 13 34 20 64 7 30 23 70 36 89 13 19 24 38 24 43 0 4 9 11
20 14 11 3 20 14 20 24 0 28 21 82 30 76 4 -2 15 17 25 43 10 26 21 49 25 52
3 3 17 31 29 63 13 31 27 60 32 63 5 3 9 14 9 25 0 32 29 67 66 79 18 6 33 14
33 18 -4 22 4 31 29 34 19 2 27 8 26 21 -2 19 5 20 59 8 32 -8 36 -7 26 5 -10
12 -9 13 6 8 15 -6 16 -4 6 13 -9 18 -6 24 24 44 19 13 35 27 35 31 0 4 6 5
13 3 23 -9 40 11 33 39 -5 21 -12 26 -39 26 -25 0 -45 10 -78 40 -24 22 -54
40 -66 40 -12 0 -25 5 -28 10 -3 6 -15 10 -26 10 -10 0 -19 6 -19 14 0 21
-107 32 -195 19z m-454 -4597 c5 3 9 -19 9 -50 0 -30 -4 -57 -9 -60 -13 -9
-19 -65 -6 -60 10 4 11 -23 2 -86 -3 -18 -77 55 -77 76 0 7 -10 19 -22 25 -20
11 -20 13 -5 24 16 11 14 13 -15 19 -18 3 -38 7 -43 8 -6 1 -12 8 -12 17 -1 9
-4 27 -5 41 -3 24 -1 25 65 26 49 1 73 6 85 18 10 9 18 12 20 6 2 -5 8 -8 13
-4z m948 -168 c20 -7 43 -22 52 -32 16 -19 16 -19 39 2 21 20 22 22 5 22 -10
0 -16 3 -12 6 3 3 24 3 46 -1 40 -7 41 -8 41 -46 0 -28 -4 -39 -15 -39 -8 0
-24 -9 -35 -20 -12 -12 -25 -18 -30 -15 -6 4 -10 -7 -10 -24 0 -29 -2 -31 -38
-31 -29 0 -40 5 -47 22 -17 37 -35 33 -52 -11 -9 -22 -20 -39 -26 -38 -6 1
-13 -11 -16 -28 -5 -24 -12 -31 -34 -33 -15 -2 -27 1 -27 7 0 8 -46 24 -75 26
-5 0 -16 4 -23 9 -17 10 4 39 22 29 6 -3 6 0 -1 8 -7 7 -13 24 -13 37 0 13 -5
32 -11 43 -8 16 -13 18 -25 8 -10 -8 -14 -8 -14 0 0 6 -11 11 -25 11 -15 0
-25 6 -25 14 0 17 51 36 96 36 18 0 45 5 61 11 24 10 117 34 147 38 5 0 26 -5
45 -11z m580 -1952 c19 -23 -14 -39 -92 -46 -44 -5 -58 -8 -37 -10 35 -3 35
-3 -10 -11 -100 -20 -127 -21 -151 -8 l-24 12 30 13 c17 7 46 13 65 14 26 0
31 3 20 10 -22 14 -10 19 75 28 114 13 111 13 124 -2z m-889 -2008 c12 -53 11
-60 -5 -78 -10 -11 -23 -20 -29 -20 -6 0 -23 -11 -38 -25 -18 -17 -39 -25 -63
-25 -48 0 -46 24 5 80 27 29 40 52 40 72 0 22 4 28 23 28 12 0 28 10 36 23 8
12 15 18 17 12 1 -5 7 -36 14 -67z m1990 -944 c0 -12 10 -15 47 -13 38 3 49 0
61 -19 13 -19 12 -25 -3 -48 -12 -18 -20 -23 -25 -15 -4 8 -11 2 -20 -18 -16
-39 -24 -39 -40 -2 -7 19 -17 28 -26 24 -8 -3 -17 2 -20 11 -3 9 -17 16 -30
16 -21 0 -24 4 -24 40 l0 40 40 0 c30 0 40 -4 40 -16z m-182 -89 c6 -14 18
-25 26 -25 7 0 21 -11 30 -25 9 -14 23 -25 32 -25 9 0 29 -14 46 -31 17 -17
37 -28 45 -25 8 3 12 2 9 -3 -12 -19 99 -28 139 -11 19 8 19 9 1 9 -15 1 -17
4 -9 12 16 16 33 2 55 -47 10 -24 25 -44 31 -44 16 0 97 82 97 98 0 17 14 15
33 -6 9 -9 17 -40 19 -67 l3 -50 50 3 c43 3 55 0 78 -22 26 -24 28 -32 26 -89
-1 -34 2 -72 6 -84 6 -18 3 -23 -9 -23 -12 0 -16 -10 -16 -37 0 -40 -12 -67
-30 -69 -5 -1 -14 -2 -19 -3 -8 -1 -4 -120 5 -129 1 -2 17 9 34 25 36 31 80
101 80 126 0 8 10 19 23 23 33 10 57 34 57 58 0 12 8 44 18 71 10 28 18 73 18
100 l-1 50 -35 0 c-19 0 -47 8 -62 18 -15 10 -31 17 -35 14 -4 -3 -6 17 -5 44
l4 49 29 -31 c19 -20 36 -30 51 -28 28 4 49 -8 43 -24 -6 -15 40 -37 79 -37
47 -1 70 -38 56 -90 -6 -22 -8 -45 -5 -50 3 -6 1 -10 -4 -10 -6 0 -11 -6 -11
-13 0 -7 -13 -23 -30 -37 l-29 -24 6 -94 c6 -86 4 -95 -16 -123 -15 -20 -22
-43 -21 -67 1 -20 1 -41 -1 -47 -1 -5 -2 -19 -3 -30 -1 -13 -7 -19 -18 -17
-24 4 -101 -75 -94 -95 9 -21 -2 -53 -18 -53 -7 0 -20 -15 -29 -32 -9 -18 -21
-40 -26 -48 -6 -8 -13 -36 -16 -61 -5 -37 -11 -48 -28 -53 -14 -4 -26 0 -35
12 -12 16 -14 16 -23 0 -6 -10 -18 -18 -27 -18 -9 -1 -28 -7 -41 -14 -24 -13
-24 -14 -3 -25 11 -6 28 -11 36 -11 8 0 20 -9 26 -20 6 -11 25 -23 43 -28 39
-10 53 -52 16 -52 -17 0 -19 -3 -9 -14 9 -12 6 -16 -22 -21 -18 -3 -68 -7
-111 -8 -75 -2 -80 -1 -101 26 -22 27 -25 28 -82 22 -34 -4 -76 -2 -100 4 -37
10 -41 14 -39 40 2 33 20 61 40 61 7 0 18 7 25 15 16 19 30 19 30 0 0 -27 76
-39 150 -24 36 8 64 19 62 24 -1 6 -20 17 -42 25 -22 8 -40 19 -40 26 0 19
-27 24 -84 18 -58 -7 -101 8 -92 32 4 11 -8 14 -62 13 -37 0 -76 -4 -86 -8
-43 -17 -83 32 -94 113 -9 75 40 113 127 98 25 -4 61 -7 79 -6 17 1 43 2 57 3
31 1 44 31 37 84 -2 23 -9 37 -18 37 -8 0 -17 7 -21 16 -3 8 -16 20 -29 25
-21 7 -24 15 -24 61 0 38 5 57 20 73 18 19 19 27 9 79 -13 70 -39 103 -90 111
-23 4 -39 12 -39 20 0 7 -18 22 -40 32 -34 15 -40 23 -40 49 0 18 -6 43 -12
56 -9 16 -11 52 -8 110 4 77 3 88 -12 92 -10 2 -18 13 -18 24 0 11 -3 27 -6
36 -10 27 22 18 34 -9z m-588 -621 c21 -127 8 -194 -42 -215 -31 -13 -48 -6
-48 20 0 30 -18 38 -68 31 -55 -9 -69 -5 -77 21 -4 10 -11 20 -16 20 -5 1 -15
2 -21 3 -7 1 -19 -2 -26 -7 -20 -16 -34 6 -30 49 l3 39 60 3 c43 2 64 8 78 23
21 23 26 23 53 5 11 -8 34 -16 50 -18 24 -3 30 1 32 22 2 14 8 29 13 35 5 5 9
18 9 29 0 40 20 0 30 -60z m1659 -16 c5 -13 14 -39 19 -58 l10 -35 1 33 c1 45
21 40 22 -5 0 -21 2 -57 5 -80 5 -40 3 -43 -23 -48 -54 -12 -73 -26 -63 -46 6
-10 10 -27 10 -38 0 -19 -6 -21 -58 -21 -58 0 -58 0 -72 38 -7 20 -15 31 -18
23 -3 -10 -6 -10 -12 -1 -4 7 3 22 17 36 17 17 22 30 18 47 -7 26 16 57 41 57
8 0 14 6 14 14 0 22 53 105 68 106 7 0 16 -10 21 -22z m-1216 -82 c16 -21 34
-63 44 -106 12 -49 21 -69 30 -66 9 4 13 -5 12 -32 0 -20 -3 -31 -6 -24 -9 24
-22 12 -30 -30 -15 -73 -42 -53 -43 32 0 36 -16 87 -38 128 -12 21 -13 132 -2
132 3 0 17 -16 33 -34z m-688 -134 c46 -5 55 -14 55 -59 0 -29 4 -33 35 -39
37 -7 49 -17 57 -50 5 -18 0 -23 -24 -28 -31 -6 -68 7 -68 24 0 6 -29 10 -65
10 -62 0 -65 1 -80 30 -11 21 -23 30 -40 30 -14 0 -25 2 -25 5 0 13 43 84 49
81 4 -3 13 -1 21 5 8 5 22 6 30 2 8 -3 33 -8 55 -11z m2003 -73 c3 -37 -20
-75 -39 -64 -5 4 -9 -22 -9 -60 0 -58 -3 -68 -20 -72 -11 -3 -20 -13 -20 -23
0 -40 -11 -50 -56 -50 -37 0 -44 -3 -44 -20 0 -17 -7 -20 -47 -20 -27 0 -55
-4 -63 -10 -12 -7 -12 -12 4 -29 11 -12 25 -21 31 -21 7 0 15 -9 18 -20 7 -28
53 -27 68 1 17 34 29 5 29 -74 0 -63 -2 -68 -26 -77 -39 -15 -54 -12 -63 14
-9 21 -14 23 -60 18 -28 -2 -63 1 -79 7 -29 12 -29 13 -20 69 8 51 30 93 47
90 3 0 12 0 19 1 21 2 8 26 -14 26 -13 0 -19 7 -19 22 0 12 -3 25 -7 29 -15
14 -8 43 12 54 11 6 20 17 20 25 0 8 5 15 10 15 6 0 10 8 10 18 0 9 12 23 27
30 36 16 43 15 43 -6 0 -23 19 -42 42 -42 10 0 18 -7 18 -15 0 -8 4 -15 9 -15
5 0 16 7 25 15 8 8 23 15 34 15 21 0 42 43 42 87 0 13 7 26 15 29 8 4 15 18
15 34 0 41 10 61 29 58 10 -2 17 -16 19 -39z m-3941 -409 c3 0 12 8 19 18 11
14 13 3 14 -82 0 -97 0 -98 23 -94 21 4 22 1 18 -36 -2 -23 -7 -43 -11 -46 -4
-3 -11 -40 -15 -82 -7 -73 -6 -78 12 -78 17 0 21 9 27 61 3 34 6 88 6 120 0
78 15 76 24 -2 7 -71 7 -210 -1 -191 -19 48 -47 -69 -37 -162 l7 -66 -27 0
c-24 0 -26 3 -26 40 0 23 -5 40 -11 40 -7 0 -10 15 -7 40 4 44 -9 52 -30 19
-8 -12 -17 -17 -22 -13 -11 12 8 268 20 272 17 6 11 20 -25 55 -27 27 -35 42
-35 71 0 25 4 36 15 36 11 0 15 11 15 40 0 29 4 40 15 40 8 0 14 3 14 8 -3 17
4 25 8 10 2 -10 7 -18 10 -18z m2294 -299 c1 -9 1 -19 0 -23 -2 -13 17 -9 22
5 3 6 6 3 6 -9 1 -11 9 -29 20 -38 10 -9 22 -36 25 -59 12 -75 27 -97 64 -97
18 0 42 5 53 10 16 9 24 6 44 -16 14 -15 25 -33 25 -39 0 -7 7 -16 16 -19 22
-8 14 -51 -9 -50 -12 2 -5 -9 22 -33 22 -19 46 -44 53 -57 44 -78 125 -186
140 -186 17 0 57 -45 63 -72 6 -25 4 -28 -18 -28 -14 0 -32 -7 -41 -15 -8 -8
-19 -15 -24 -15 -6 0 -12 -7 -16 -15 -3 -8 -17 -15 -31 -15 -19 0 -29 9 -42
37 -13 27 -27 39 -50 45 -18 5 -39 18 -47 29 -9 13 -21 19 -33 15 -21 -6 -63
25 -63 48 0 9 -6 16 -12 16 -7 1 -25 20 -40 44 -21 33 -28 56 -28 95 0 28 -5
51 -10 51 -6 0 -15 11 -20 24 -5 13 -23 40 -40 59 -39 45 -64 134 -55 200 5
43 4 49 -14 54 -11 3 -21 15 -23 27 -4 24 11 66 24 66 5 0 6 6 3 13 -4 6 3 1
14 -12 12 -13 22 -31 22 -40z m679 -243 c0 -5 13 -23 30 -41 16 -18 30 -35 30
-39 0 -4 9 -10 20 -13 11 -3 20 -14 20 -24 0 -10 8 -25 18 -34 13 -12 19 -33
21 -71 l2 -54 -56 -4 c-66 -4 -67 -3 -82 75 -3 15 -10 27 -17 27 -6 0 -18 13
-27 29 -13 22 -15 43 -10 97 8 84 18 105 38 79 7 -11 13 -23 13 -27z m250
-518 c0 -10 -5 -31 -11 -47 -7 -18 -11 -106 -10 -239 1 -187 -2 -218 -19 -269
-11 -32 -20 -82 -20 -112 0 -60 -13 -93 -35 -93 -14 0 -21 -46 -17 -103 1 -10
-5 -17 -17 -17 -16 0 -19 12 -24 103 -4 57 -3 117 2 135 5 17 8 32 6 34 -1 2
-5 30 -9 62 -7 65 -23 96 -38 74 -8 -10 -11 -10 -15 0 -7 17 -31 15 -51 -4
-14 -15 -17 -15 -29 2 -7 10 -13 28 -13 41 0 13 -9 32 -21 44 -19 19 -19 22
-6 43 9 12 17 33 19 46 4 28 29 46 53 36 14 -5 15 -9 5 -21 -11 -13 -7 -15 24
-15 25 0 36 -4 36 -15 0 -8 5 -15 10 -15 6 0 13 7 16 15 4 8 17 15 30 15 21 0
24 4 24 40 0 22 5 40 10 40 6 0 10 18 10 40 0 22 5 40 10 40 15 0 32 48 35
102 1 25 6 51 9 57 10 15 36 1 36 -19z m4393 -487 c29 -14 38 -53 12 -53 -8 0
-12 -6 -9 -14 9 -24 -79 -36 -117 -16 -15 8 -19 21 -19 60 l0 49 53 -6 c28 -3
64 -12 80 -20z"/>
<path d="M6276 2583 c3 -11 -13 -40 -36 -71 -34 -45 -40 -60 -40 -101 0 -31 5
-53 15 -61 21 -18 64 -4 77 25 6 14 17 25 25 25 7 0 13 4 13 9 0 5 16 26 35
47 39 43 42 56 20 74 -8 7 -15 21 -15 31 0 22 -45 27 -53 7 -4 -8 -8 -4 -12
10 -8 26 -35 31 -29 5z"/>
<path d="M6208 11623 c-10 -2 -18 -8 -18 -13 0 -4 -31 -13 -69 -20 -61 -10
-128 -39 -94 -40 7 0 19 -15 26 -32 13 -31 17 -33 69 -36 30 -2 67 2 82 8 27
10 86 62 86 75 0 7 -57 66 -62 64 -2 -1 -11 -3 -20 -6z"/>
<path d="M10880 11330 c0 -5 -9 -10 -20 -10 -13 0 -24 -10 -30 -24 -5 -14 -18
-30 -30 -36 -11 -6 -18 -14 -16 -19 7 -10 -34 -92 -59 -119 -12 -12 -29 -44
-39 -72 -13 -37 -23 -50 -38 -50 -19 0 -20 -4 -13 -79 6 -65 4 -79 -8 -84 -11
-4 -17 -28 -22 -81 -5 -55 -11 -76 -21 -76 -11 0 -14 -19 -14 -80 0 -62 3 -80
14 -80 10 0 16 -22 21 -80 6 -69 10 -80 26 -80 15 0 19 -7 19 -40 0 -29 4 -40
15 -40 11 0 15 -11 15 -36 0 -38 15 -74 30 -74 6 0 10 16 10 35 0 39 13 45 32
15 7 -11 21 -20 30 -20 13 0 18 -8 18 -28 0 -16 8 -33 19 -41 15 -11 21 -32
26 -93 5 -57 11 -78 21 -78 20 0 19 -76 -1 -84 -9 -3 -15 -19 -15 -41 0 -24
-8 -44 -24 -59 -12 -13 -26 -31 -29 -40 -4 -9 -11 -16 -16 -16 -6 0 -21 -11
-35 -25 -19 -18 -36 -25 -66 -25 -33 0 -40 -3 -40 -20 0 -17 -7 -20 -40 -20
-22 0 -40 -4 -40 -10 0 -5 -18 -10 -40 -10 -29 0 -40 4 -40 15 0 11 -11 15
-40 15 -22 0 -40 4 -40 9 0 5 -12 22 -27 38 -16 16 -35 39 -43 51 -10 16 -24
22 -50 22 l-36 0 1 74 c0 57 -4 78 -17 93 -24 26 -25 113 -2 113 12 0 15 9 13
43 -2 37 2 46 35 80 21 20 42 37 47 37 5 0 8 37 8 83 -1 45 -4 70 -6 55 -5
-35 -13 -35 -45 1 -21 23 -27 43 -33 105 l-7 76 43 2 44 1 -39 4 c-41 5 -113
60 -88 70 8 3 12 30 12 84 0 78 0 79 -25 79 -25 0 -25 1 -25 83 0 81 -1 83
-29 100 -36 21 -55 22 -71 2 -7 -8 -16 -15 -20 -15 -4 0 -33 26 -64 57 -47 47
-56 53 -56 35 0 -12 -5 -22 -11 -22 -24 0 -39 -70 -39 -191 0 -112 -1 -121
-20 -126 -18 -5 -20 -14 -20 -84 0 -43 -4 -81 -10 -84 -5 -3 -10 -24 -10 -46
0 -44 -23 -109 -39 -109 -6 0 -11 -12 -11 -26 0 -26 -20 -54 -39 -54 -6 0 -11
-18 -11 -40 0 -29 -4 -40 -15 -40 -8 0 -15 9 -15 20 0 24 -13 26 -30 5 -19
-23 29 -65 75 -65 24 0 35 -5 35 -15 0 -7 7 -18 16 -23 14 -8 17 -35 22 -166
3 -114 8 -156 17 -156 8 0 14 -19 17 -48 3 -35 12 -55 34 -77 16 -17 36 -41
44 -53 11 -16 24 -22 52 -22 25 0 45 -7 58 -20 11 -11 24 -20 28 -20 4 0 14
-9 22 -20 14 -19 26 -20 212 -20 191 0 198 1 198 20 0 11 7 20 15 20 11 0 15
-11 15 -40 0 -22 5 -40 11 -40 14 0 39 -25 39 -39 0 -6 21 -11 49 -11 45 0 51
-3 70 -35 23 -39 41 -46 41 -15 0 11 2 20 4 20 3 0 22 -18 44 -40 31 -32 46
-40 75 -40 19 0 37 -5 39 -11 6 -17 470 -18 475 -1 7 18 32 15 51 -7 21 -22
205 -44 295 -34 49 5 57 3 57 -11 0 -12 10 -16 40 -16 32 0 40 4 40 18 0 9 9
23 19 29 40 25 37 347 -3 392 -9 10 -16 26 -16 36 0 10 -8 27 -17 37 -9 10
-18 42 -21 73 -3 38 -9 55 -18 55 -10 0 -14 13 -14 41 l0 41 -40 -3 c-32 -3
-43 1 -56 19 -14 20 -14 24 0 44 9 12 16 39 16 60 0 27 4 38 15 38 12 0 15 17
17 83 4 154 -1 256 -14 279 -7 13 -11 26 -10 31 1 4 -8 7 -21 7 -22 0 -24 5
-34 90 -6 58 -16 97 -27 108 -9 10 -16 30 -16 44 0 14 -7 28 -15 31 -20 8 -65
82 -65 107 0 11 -6 20 -13 20 -8 0 -21 18 -30 40 -11 28 -21 40 -35 40 -13 0
-24 11 -32 33 -17 42 -58 97 -73 97 -16 1 -57 36 -57 49 0 14 -66 42 -84 35
-7 -3 -19 2 -26 11 -7 8 -18 15 -25 15 -16 0 -133 59 -140 71 -4 5 -15 9 -26
9 -10 0 -19 5 -19 10 0 6 -18 10 -40 10 -22 0 -40 -4 -40 -10z"/>
<path d="M8956 11043 c-17 -3 -30 -12 -33 -24 -4 -13 -14 -19 -33 -19 -30 0
-90 -50 -90 -74 0 -7 -11 -18 -24 -24 -23 -10 -24 -15 -19 -70 8 -88 -6 -232
-22 -232 -7 0 -15 6 -18 13 -2 6 -8 8 -13 4 -5 -4 -3 -11 3 -15 6 -4 12 -26
14 -48 3 -36 -1 -45 -28 -68 -28 -24 -30 -29 -25 -73 3 -27 9 -51 14 -54 5 -3
-2 -15 -16 -27 -14 -11 -26 -27 -26 -36 0 -9 -4 -16 -10 -16 -5 0 -10 -18 -10
-40 0 -22 5 -40 10 -40 6 0 10 -5 10 -11 0 -6 11 -20 25 -31 17 -13 24 -26 20
-38 -4 -12 2 -24 17 -34 21 -15 23 -24 23 -91 -1 -45 -6 -80 -13 -87 -14 -14
-16 -108 -3 -108 6 0 12 17 14 38 2 20 3 9 1 -24 -4 -50 -1 -63 12 -68 9 -4
13 -13 10 -24 -4 -13 4 -28 29 -50 19 -18 36 -32 39 -32 2 0 19 -13 36 -29 17
-16 36 -33 41 -38 5 -4 19 -20 31 -35 21 -25 25 -27 48 -15 14 7 25 21 25 31
0 10 10 26 23 36 12 10 22 25 22 34 0 11 9 16 26 16 15 0 33 8 40 18 12 15 13
14 14 -10 0 -16 4 -28 10 -28 5 0 8 12 5 28 -2 15 -7 99 -10 187 -6 181 1 285
20 285 9 0 15 26 20 80 5 57 11 80 20 80 9 0 15 -16 18 -42 2 -24 4 -4 5 44 2
80 1 86 -17 81 -17 -4 -20 3 -25 79 -3 45 -8 162 -11 259 -3 96 -8 203 -11
237 l-7 62 -33 0 c-23 0 -34 5 -34 14 0 8 -3 17 -8 20 -13 8 -76 14 -106 9z"/>
<path d="M12720 11014 c0 -15 -9 -16 -61 -10 -85 8 -170 -3 -176 -23 -2 -9
-22 -24 -44 -34 -21 -10 -39 -23 -39 -28 0 -6 -13 -22 -30 -36 -38 -32 -38
-55 2 -88 26 -22 29 -28 17 -37 -11 -7 -11 -11 -1 -15 6 -2 12 -9 12 -14 0
-10 37 -49 46 -49 4 0 15 -9 25 -21 9 -11 21 -19 26 -18 4 1 17 -12 28 -29 24
-38 35 -40 35 -7 0 27 17 34 26 10 4 -8 15 -15 25 -15 18 0 19 -9 19 -114 0
-82 -4 -116 -12 -119 -7 -3 13 -6 45 -6 44 -1 57 2 57 14 0 11 11 15 40 15 27
0 40 -4 40 -14 0 -17 147 -33 162 -18 8 8 4 9 -11 5 -19 -5 -21 -1 -21 36 0
28 4 41 14 41 7 0 17 8 20 18 3 9 13 28 21 42 8 14 15 41 15 61 0 28 5 38 20
42 15 4 20 14 20 37 0 18 9 48 21 66 11 19 19 40 16 47 -2 6 0 23 6 37 5 14
11 39 12 57 3 29 -1 33 -43 53 -26 12 -54 28 -62 34 -8 7 -36 19 -62 26 -28 7
-48 18 -48 26 0 8 -10 14 -23 14 -13 0 -32 7 -43 15 -27 21 -94 20 -94 -1z"/>
<path d="M7095 10984 c-16 -2 -55 -11 -86 -20 -49 -14 -58 -21 -66 -48 -13
-41 -5 -96 14 -103 7 -3 21 -19 29 -35 8 -16 19 -26 24 -23 6 4 11 1 11 -4 1
-6 2 -15 3 -20 0 -5 13 -21 29 -35 15 -14 28 -30 28 -36 1 -5 2 -14 3 -18 2
-15 50 -62 79 -78 15 -8 27 -20 27 -27 0 -7 13 -18 28 -25 16 -7 56 -38 89
-70 45 -43 62 -66 67 -94 4 -24 11 -35 19 -32 9 3 18 -12 27 -45 7 -27 16 -49
19 -48 3 1 18 -10 33 -23 43 -41 53 -47 67 -42 8 3 20 -3 28 -14 12 -16 13
-14 13 19 0 33 3 37 25 37 14 0 29 8 34 19 6 10 21 21 35 25 13 3 33 22 45 41
11 19 25 35 31 35 5 0 10 8 10 18 0 9 8 22 19 29 10 6 21 25 24 42 4 17 12 31
18 31 12 0 99 82 99 93 0 3 15 21 34 39 31 30 35 40 41 109 4 41 15 93 25 114
19 40 18 61 -2 49 -7 -5 -9 9 -6 45 3 28 1 54 -3 57 -5 3 -9 -5 -10 -18 0 -22
-1 -22 -9 -3 -4 11 -20 31 -34 45 -22 20 -29 22 -36 11 -7 -12 -63 -13 -342
-7 -183 3 -360 8 -393 10 -33 2 -73 2 -90 0z"/>
<path d="M6680 10854 c-17 -5 -40 -49 -40 -75 0 -9 -7 -19 -14 -22 -8 -3 -23
-21 -32 -39 -9 -18 -25 -41 -35 -51 -20 -18 -22 -30 -23 -132 l-1 -60 -37 -3
c-40 -3 -50 12 -26 36 10 10 3 21 -30 55 -28 28 -42 36 -42 25 0 -33 -49 -29
-50 5 0 4 -7 7 -15 7 -8 0 -15 5 -15 11 0 6 -6 9 -14 6 -7 -3 -25 7 -40 22
-23 24 -26 36 -26 93 0 37 -4 69 -8 72 -19 11 -68 -32 -80 -71 -19 -65 -1
-263 24 -263 8 0 14 -6 14 -14 0 -20 24 -64 47 -84 11 -9 22 -24 25 -33 10
-27 116 -44 189 -30 80 16 117 30 102 39 -7 5 9 21 42 42 50 33 54 37 49 67
-9 48 5 92 38 121 17 15 35 26 39 24 5 -1 12 11 15 27 4 17 14 31 25 34 11 3
19 14 19 25 0 12 5 24 11 28 6 3 9 15 6 25 -3 12 0 19 9 19 19 0 18 25 -2 55
-9 14 -12 25 -8 25 5 0 2 5 -6 10 -15 10 -81 12 -110 4z"/>
<path d="M7171 10381 c-8 -5 -41 -8 -74 -6 l-58 4 -15 -34 c-8 -19 -18 -35
-23 -35 -5 0 -12 -14 -16 -31 -4 -17 -13 -33 -21 -36 -7 -3 -21 -30 -31 -61
-9 -32 -25 -69 -35 -84 -10 -14 -18 -40 -18 -58 0 -17 -11 -48 -25 -68 -14
-20 -25 -49 -25 -64 0 -18 -7 -29 -20 -33 -14 -4 -22 -19 -26 -47 -4 -22 -13
-42 -19 -45 -24 -9 -69 -161 -55 -184 6 -8 29 -12 71 -11 65 2 82 8 61 21 -12
7 70 31 109 31 10 0 19 6 19 13 0 19 33 47 53 47 9 0 17 4 17 9 0 6 19 14 43
18 30 7 42 14 41 26 -1 12 11 20 39 28 23 6 52 22 64 35 12 13 29 24 38 24 8
0 15 7 15 16 0 9 9 18 20 21 11 3 20 11 20 17 0 6 14 23 30 38 19 17 28 32 24
42 -7 18 13 49 26 41 12 -7 22 44 15 76 -5 22 -12 29 -31 29 -17 0 -24 6 -24
20 0 11 -6 20 -13 20 -8 0 -22 -9 -32 -20 -10 -11 -22 -20 -27 -20 -4 0 -8 36
-8 80 0 47 4 80 10 80 7 0 7 6 1 18 -6 9 -12 29 -15 43 -4 19 -14 28 -33 32
-16 3 -35 8 -43 11 -8 3 -21 2 -29 -3z"/>
<path d="M14992 8883 c-9 -21 -20 -39 -24 -41 -5 -2 -8 -11 -8 -20 0 -9 -10
-26 -22 -39 -12 -13 -16 -23 -10 -23 7 0 12 -16 12 -40 l0 -40 50 0 c48 0 50
1 50 28 0 16 8 34 20 42 15 11 20 26 20 57 0 36 -5 46 -35 69 -19 14 -32 30
-29 35 3 5 3 9 -1 9 -3 0 -13 -17 -23 -37z"/>
<path d="M7739 8863 c-1 -5 -1 -12 0 -16 1 -5 -17 -7 -40 -5 -41 3 -43 1 -51
-30 -8 -29 -12 -31 -35 -26 -22 6 -25 4 -20 -10 5 -13 -1 -16 -33 -16 -29 0
-40 -4 -40 -15 0 -9 -14 -17 -39 -21 -23 -4 -54 -20 -77 -39 -21 -19 -42 -31
-46 -29 -5 3 -11 -2 -15 -11 -3 -10 -20 -23 -37 -31 -17 -7 -25 -13 -18 -14 9
0 10 -5 2 -19 -5 -11 -10 -29 -10 -40 0 -10 -6 -21 -12 -24 -10 -3 -10 -9 0
-26 6 -11 12 -34 12 -50 0 -19 10 -40 25 -55 18 -19 25 -36 25 -66 0 -25 -5
-40 -12 -40 -7 0 -23 -13 -35 -28 -12 -15 -33 -40 -48 -57 -16 -19 -24 -38
-22 -52 2 -13 0 -23 -4 -23 -5 0 -9 8 -9 18 -1 16 -1 16 -14 0 -7 -10 -19 -18
-25 -18 -21 0 -41 -27 -41 -55 0 -16 -9 -34 -22 -45 -18 -14 -20 -21 -10 -32
20 -24 192 -4 192 23 0 5 18 9 40 9 22 0 40 4 40 10 0 5 50 9 120 8 66 0 120
-4 120 -8 0 -4 9 -10 20 -13 11 -3 20 -10 20 -17 0 -7 -9 -14 -20 -17 -11 -3
-20 -11 -20 -18 0 -8 -23 -14 -67 -18 -119 -10 -139 -14 -173 -33 -18 -11 -41
-23 -51 -29 -24 -13 -27 -85 -4 -85 11 0 15 -11 15 -40 0 -29 -4 -40 -15 -40
-11 0 -15 -11 -15 -40 0 -29 4 -40 15 -40 33 0 55 -39 60 -103 2 -34 2 -52 -1
-41 -4 18 -14 22 -55 26 -63 6 -89 29 -89 80 0 26 -4 38 -14 38 -14 0 -36 -49
-36 -81 0 -21 -16 -24 -40 -9 -10 7 -11 10 -2 10 10 0 10 4 0 20 -13 20 -27
15 -32 -11 -2 -8 -6 -22 -10 -31 -5 -9 -1 -27 9 -41 14 -22 14 -29 2 -64 -8
-23 -12 -66 -10 -104 4 -68 31 -169 46 -169 5 0 7 -20 6 -44 -3 -53 25 -114
56 -118 15 -2 24 -17 36 -63 10 -40 21 -61 32 -63 10 -2 17 -11 17 -20 0 -9
21 -32 45 -51 25 -18 42 -37 39 -43 -9 -14 24 -58 40 -52 18 7 30 -42 21 -89
-4 -20 -4 -44 -1 -55 7 -21 45 -42 76 -42 11 0 20 -4 20 -9 0 -25 33 -17 65
16 32 33 47 73 26 73 -5 0 -7 22 -4 49 4 47 3 48 -29 62 -18 8 -49 14 -68 14
-27 0 -35 4 -34 18 0 9 1 37 2 62 2 33 7 47 19 52 9 4 19 1 21 -5 6 -19 50
-14 64 7 10 14 12 38 7 88 -3 37 -2 72 3 77 4 6 8 -14 8 -44 0 -52 1 -54 16
-32 17 25 34 21 34 -9 0 -10 7 -19 15 -19 8 0 15 -8 15 -18 0 -10 5 -23 12
-30 6 -6 11 -33 10 -59 -2 -50 19 -125 36 -131 6 -2 22 7 36 19 22 19 25 30
24 77 -1 35 3 57 10 60 14 4 16 39 3 44 -5 2 -10 30 -11 63 -3 116 -1 135 15
135 9 0 20 11 25 24 5 13 14 27 20 31 8 5 11 40 9 106 -2 83 0 101 15 118 10
11 28 19 40 18 19 -2 21 4 24 51 3 48 5 52 28 52 21 0 24 4 24 40 l0 40 40 0
c33 0 40 -4 40 -19 0 -15 9 -20 48 -24 40 -4 50 -1 69 19 12 13 33 24 47 24
27 0 76 42 76 65 0 24 28 17 32 -7 2 -15 11 -24 26 -26 14 -2 22 -10 22 -23 0
-11 14 -32 30 -46 21 -17 29 -31 25 -43 -3 -10 -1 -22 6 -25 13 -9 29 13 23
30 -3 6 2 25 11 41 8 16 15 35 15 42 0 23 18 12 25 -15 16 -64 55 -61 55 4 0
39 17 76 31 68 5 -4 9 -1 9 4 0 6 7 11 16 11 9 0 25 11 35 24 11 14 29 28 41
32 16 5 18 8 7 15 -11 7 -9 9 7 9 12 0 27 7 34 15 7 8 21 15 31 15 21 0 26 16
7 23 -7 2 6 10 30 16 23 6 42 18 42 25 0 7 11 22 25 34 14 12 25 32 25 44 0
30 10 44 38 52 12 4 20 11 17 16 -3 4 15 14 38 21 26 7 47 21 53 33 5 12 20
23 33 24 14 2 39 14 55 26 17 13 39 26 49 29 9 4 17 11 17 16 0 6 18 16 40 22
22 7 40 18 40 25 0 7 8 15 18 18 29 10 76 116 67 154 -7 34 -10 35 -130 47
-32 3 -62 9 -65 14 -7 11 -145 41 -191 41 -23 0 -38 4 -36 11 1 6 -18 19 -43
29 -25 9 -46 25 -48 34 -2 10 -14 16 -31 16 -18 0 -42 13 -71 40 -24 22 -51
40 -61 40 -18 0 -79 54 -79 71 0 5 -11 9 -25 9 -14 0 -25 6 -25 13 0 30 -69
63 -99 48 -9 -5 -119 -14 -245 -21 -209 -11 -231 -11 -241 4 -9 12 -28 16 -71
16 -79 0 -254 22 -254 32 0 4 18 8 40 8 38 0 40 2 40 29 0 28 3 30 43 34 l42
4 -42 1 c-24 1 -43 7 -43 12 0 12 -19 14 -21 3z"/>
<path d="M7147 8501 c-3 -12 -23 -25 -56 -36 -36 -12 -51 -22 -51 -35 0 -10
-10 -20 -21 -23 -16 -4 -20 -11 -16 -26 3 -12 1 -21 -4 -21 -5 0 -9 -7 -9 -15
0 -8 -9 -19 -20 -25 -18 -10 -20 -20 -19 -108 1 -53 4 -84 6 -69 4 28 5 28 23
12 19 -17 20 -16 30 9 13 36 14 34 -17 39 -16 2 -7 3 19 2 45 -2 47 -1 65 36
10 22 24 39 31 39 7 0 12 15 12 40 0 29 4 40 15 40 18 0 55 78 56 122 1 18 3
25 6 15 5 -20 23 -13 23 9 0 23 -66 19 -73 -5z"/>
<path d="M11643 8499 c-29 -14 -43 -26 -43 -39 0 -13 -7 -20 -19 -20 -10 0
-24 -7 -31 -15 -8 -9 -22 -12 -42 -8 l-31 6 7 -39 c4 -21 14 -46 22 -55 8 -8
14 -23 14 -32 0 -10 8 -17 20 -17 11 0 27 -11 36 -25 9 -14 20 -22 25 -20 4 3
15 -5 24 -19 9 -13 30 -30 48 -37 18 -7 35 -18 40 -25 4 -7 29 -16 55 -19 64
-8 132 -28 132 -37 0 -4 10 -8 23 -8 12 0 42 -14 67 -30 25 -17 58 -30 75 -30
17 0 40 -7 52 -15 16 -11 69 -19 190 -26 154 -9 217 -8 343 7 l46 5 2 57 c1
31 7 59 12 60 16 6 12 19 -19 52 -93 100 -131 128 -131 95 0 -8 -5 -15 -10
-15 -6 0 -13 7 -16 15 -4 8 -10 15 -16 15 -10 0 -38 25 -38 34 0 9 -63 65 -73
66 -9 0 -92 36 -130 56 -15 9 -31 13 -36 10 -10 -6 -128 50 -137 65 -3 5 -98
9 -212 8 -183 -1 -212 -3 -249 -20z"/>
<path d="M10506 8111 c-3 -5 -28 -17 -56 -27 -27 -10 -50 -24 -50 -31 0 -7 -4
-13 -8 -13 -14 0 -35 -105 -28 -134 6 -24 4 -26 -23 -26 -27 0 -29 -3 -36 -55
-8 -67 1 -116 20 -109 7 3 16 21 20 40 3 19 12 37 19 40 8 3 17 20 20 37 4 18
10 28 14 22 4 -5 16 -15 27 -21 13 -7 22 -25 25 -50 4 -34 8 -39 30 -39 18 0
24 5 22 18 -2 11 4 17 17 17 45 0 90 77 125 216 9 37 10 55 2 65 -12 16 -64
43 -83 44 -6 0 -15 4 -19 8 -10 10 -32 9 -38 -2z"/>
<path d="M12596 7280 c-16 -5 -33 -7 -37 -4 -4 2 -10 -5 -14 -16 -3 -11 -13
-20 -21 -20 -8 0 -14 -9 -14 -20 0 -11 -3 -20 -7 -20 -86 -3 -149 -12 -193
-28 -50 -19 -56 -24 -61 -56 -6 -36 4 -56 28 -56 13 0 21 -15 37 -68 6 -19 3
-23 -25 -29 -19 -3 -34 -13 -36 -25 -3 -10 -13 -18 -23 -18 -22 0 -87 -59
-106 -95 -18 -35 -18 -54 0 -61 29 -11 37 -55 27 -149 -5 -51 -5 -99 0 -112
14 -38 8 -271 -7 -284 -8 -6 -11 -15 -8 -20 2 -5 -3 -23 -12 -40 -12 -24 -14
-45 -9 -88 4 -31 11 -59 17 -62 5 -4 16 -44 23 -90 7 -46 17 -95 23 -109 6
-14 16 -91 21 -171 14 -193 21 -239 36 -239 7 0 18 -24 24 -52 6 -29 13 -57
14 -63 4 -15 56 -65 69 -65 5 0 28 -10 50 -22 37 -21 39 -24 36 -68 -2 -37 1
-48 20 -63 12 -11 29 -16 37 -13 17 6 20 26 5 26 -17 0 -10 24 15 53 16 18 34
27 54 27 25 0 32 7 50 43 12 24 22 61 23 83 1 38 1 38 5 6 4 -31 5 -33 18 -15
28 37 11 171 -21 159 -6 -2 -24 9 -39 25 -25 29 -26 34 -20 105 5 52 4 74 -4
74 -15 0 -14 43 1 58 7 7 11 31 9 53 -1 23 1 45 6 48 4 3 17 23 27 44 11 20
24 37 31 37 25 0 55 94 55 171 0 89 7 119 25 113 7 -3 24 0 37 7 13 7 26 12
31 11 4 -1 7 3 7 8 0 6 -4 10 -10 10 -6 0 -10 33 -10 80 0 47 4 80 10 80 18 0
10 22 -15 42 -20 16 -25 28 -25 68 0 38 -4 49 -19 53 -12 3 -22 18 -26 38 -9
39 -89 119 -120 119 -11 0 -15 11 -15 40 0 29 4 40 15 40 23 0 18 12 -16 45
-18 16 -27 31 -20 33 18 6 13 18 -20 51 -35 35 -34 50 4 69 28 13 36 37 16 44
-7 2 2 17 20 33 17 17 31 35 31 42 0 6 9 15 20 18 17 6 20 15 20 76 0 39 4 69
10 69 6 0 10 -6 11 -12 1 -7 4 -2 9 12 5 18 3 29 -8 38 -18 14 -25 14 -66 2z"/>
<path d="M1111 6864 c-11 -13 -11 -18 -1 -24 10 -6 5 -15 -18 -35 -18 -15 -32
-32 -32 -39 0 -7 -9 -21 -21 -32 -11 -10 -29 -37 -40 -59 -27 -57 -43 -75 -68
-75 -47 0 -73 -66 -70 -175 3 -104 25 -139 92 -143 26 -2 47 -7 47 -12 0 -13
89 -52 125 -55 44 -5 175 38 175 57 0 4 14 8 30 8 l30 0 0 139 c0 113 -3 141
-15 151 -9 7 -14 18 -11 25 5 14 -27 112 -43 128 -6 6 -11 21 -11 33 0 22 -52
84 -71 84 -5 0 -9 9 -9 20 0 17 -7 20 -37 20 -22 -1 -44 -8 -52 -16z"/>
<path d="M10775 6491 c-29 -81 -40 -195 -19 -209 6 -4 14 -17 18 -29 4 -12 25
-40 46 -62 33 -34 46 -41 79 -41 24 0 46 7 57 18 17 16 17 16 11 0 -10 -27 24
-39 92 -34 50 3 65 9 89 32 15 16 31 37 35 47 3 9 13 17 21 17 19 0 24 17 31
102 9 106 -1 131 -56 144 -53 12 -82 24 -91 37 -3 6 -51 12 -107 15 -56 2
-101 8 -101 12 0 4 -17 12 -38 17 l-39 10 -28 -76z"/>
<path d="M7670 6260 c0 -11 7 -20 15 -20 16 0 38 -34 28 -43 -3 -4 6 -11 21
-16 14 -6 26 -17 26 -25 0 -8 9 -17 19 -21 11 -3 26 -17 35 -30 9 -14 23 -25
31 -25 8 0 15 -9 15 -20 0 -13 7 -20 19 -20 11 0 26 -6 33 -13 7 -7 30 -18 51
-24 30 -9 37 -9 37 2 0 8 -7 20 -15 29 -8 8 -15 21 -15 28 0 7 -18 29 -41 48
-22 19 -48 43 -57 53 -9 11 -27 23 -39 28 -13 5 -23 15 -23 23 0 8 -10 16 -22
18 -13 2 -21 6 -18 9 12 13 -31 39 -64 39 -29 0 -36 -4 -36 -20z"/>
<path d="M7953 6223 c-24 -4 -31 -27 -13 -38 6 -3 10 -19 10 -36 0 -24 4 -29
25 -29 15 0 25 -6 25 -14 0 -7 11 -21 25 -30 14 -9 25 -25 25 -35 0 -10 11
-31 25 -47 14 -16 25 -35 25 -41 0 -7 7 -13 15 -13 9 0 20 -11 25 -25 5 -14
16 -28 25 -31 8 -3 13 -10 10 -14 -3 -4 2 -13 10 -20 8 -7 15 -21 15 -31 0
-12 7 -19 20 -19 15 0 22 -9 27 -31 3 -17 14 -36 24 -42 11 -7 19 -17 19 -23
0 -6 14 -28 30 -49 17 -21 30 -44 30 -51 0 -7 6 -17 13 -21 6 -4 17 -17 23
-28 6 -11 16 -20 23 -20 6 0 19 -14 28 -32 17 -30 70 -96 121 -150 12 -13 20
-28 17 -33 -2 -4 2 -13 10 -20 7 -6 12 -17 9 -24 -3 -7 7 -18 21 -24 14 -6 25
-18 25 -26 0 -8 10 -16 23 -18 14 -2 23 -11 25 -25 2 -14 10 -23 22 -23 10 0
20 -9 23 -20 3 -11 13 -20 22 -20 9 0 19 9 22 20 3 11 14 20 25 20 17 0 19 6
16 58 -3 53 -5 57 -29 60 -17 2 -29 11 -32 23 -3 10 -2 19 3 19 4 0 13 21 20
48 7 26 21 56 31 68 11 11 19 33 19 50 1 33 30 74 54 74 39 0 1 36 -48 45 -22
5 -36 13 -36 22 0 8 -5 11 -10 8 -16 -10 -120 24 -120 39 0 18 -22 26 -75 26
-34 0 -45 4 -50 19 -9 29 15 60 50 66 54 8 188 16 272 16 82 0 160 -22 177
-50 4 -6 22 -11 39 -11 51 0 107 -12 102 -21 -7 -10 48 -26 139 -40 77 -12
137 0 160 32 7 10 24 23 39 28 15 6 27 15 27 21 0 13 -66 40 -100 40 -21 0
-31 8 -46 39 -24 49 -48 61 -127 61 -82 0 -168 11 -162 20 6 10 -57 20 -131
20 -100 0 -244 12 -239 20 6 10 -24 17 -99 26 -57 7 -57 7 -79 55 -14 33 -27
49 -39 49 -10 0 -21 6 -24 14 -7 18 -56 36 -96 36 -16 0 -42 7 -58 15 -17 9
-31 15 -32 15 -2 -1 -10 1 -18 4 -8 2 -42 7 -75 11 -136 14 -160 18 -165 25
-7 9 -79 18 -107 13z"/>
<path d="M11766 6164 c-9 -8 -16 -12 -16 -7 0 4 -21 -14 -45 -41 -29 -32 -45
-58 -45 -75 0 -14 -4 -40 -9 -57 -8 -28 -6 -33 15 -43 35 -16 83 -3 134 37 57
45 70 61 70 86 0 12 7 34 15 50 8 15 15 34 15 41 0 27 -109 35 -134 9z"/>
<path d="M6880 6157 c0 -8 15 -29 33 -48 17 -19 37 -45 43 -59 29 -64 37 -86
36 -92 -1 -5 9 -8 23 -8 14 0 28 -1 33 -2 4 -2 8 8 9 22 2 23 2 23 -6 5 -8
-16 -10 -13 -11 20 -3 63 1 87 16 103 13 12 11 17 -13 39 -20 17 -36 22 -55
19 -15 -3 -30 -1 -33 4 -10 16 -75 12 -75 -3z"/>
<path d="M7438 6073 c-20 -5 -23 -20 -8 -43 6 -10 10 -11 10 -2 0 21 18 13 22
-10 2 -19 11 -24 47 -29 25 -3 49 -13 57 -23 7 -10 31 -20 53 -23 32 -4 41
-10 41 -25 0 -10 7 -21 15 -24 8 -3 23 -22 35 -41 11 -19 34 -40 50 -46 17 -6
30 -17 30 -24 0 -7 13 -22 30 -34 16 -12 27 -26 24 -30 -6 -10 32 -31 61 -34
11 -1 23 -3 27 -4 4 0 14 -17 22 -36 8 -19 22 -38 31 -41 8 -3 15 -15 15 -25
0 -10 4 -19 10 -19 5 0 24 -16 43 -35 27 -27 42 -35 73 -36 21 -1 31 -3 22 -6
-22 -5 -23 -22 -3 -29 8 -4 15 -12 15 -20 0 -8 9 -19 20 -26 11 -7 20 -17 20
-23 0 -5 12 -23 28 -40 15 -16 27 -36 28 -42 1 -7 2 -18 3 -24 0 -5 17 -17 36
-25 32 -13 35 -18 35 -54 0 -33 4 -40 19 -40 10 0 21 -6 24 -14 3 -8 23 -19
44 -26 59 -19 83 -38 83 -65 0 -16 6 -25 15 -25 9 0 19 -8 22 -17 8 -20 82
-93 95 -93 4 0 8 -9 8 -19 0 -15 9 -20 38 -23 56 -5 72 1 83 29 7 19 5 30 -11
50 -11 14 -20 31 -20 37 0 6 -9 17 -20 24 -11 7 -20 23 -20 37 0 14 -5 25 -11
25 -19 0 -39 28 -39 54 0 20 -5 26 -22 26 -17 0 -28 11 -42 40 -14 29 -25 40
-42 40 -29 0 -82 46 -99 88 -8 17 -19 32 -24 32 -6 0 -11 7 -11 15 0 24 -52
64 -83 65 -20 0 -30 -7 -37 -22 -8 -20 -9 -18 -9 14 -1 20 -4 43 -7 52 -4 11
-1 16 10 16 9 0 16 7 16 15 0 8 -6 12 -14 9 -9 -3 -17 3 -21 15 -3 11 -28 35
-55 52 -27 18 -47 36 -44 41 3 5 2 8 -3 7 -28 -5 -44 2 -39 19 5 18 -25 62
-43 62 -6 0 -11 8 -11 18 -1 18 -33 62 -46 62 -10 0 -81 49 -113 78 -14 12
-31 21 -39 20 -9 -2 -36 16 -61 39 -36 34 -58 45 -104 54 -32 7 -63 19 -70 28
-7 9 -28 17 -47 18 -21 2 -42 11 -52 23 -16 19 -49 24 -90 13z"/>
<path d="M7270 5891 c-63 -34 -81 -41 -102 -41 -34 0 -44 -11 -51 -52 -5 -31
-2 -40 13 -48 28 -15 34 -13 66 20 16 16 34 30 40 30 7 0 14 7 17 14 3 8 24
20 47 26 30 8 40 16 38 28 -5 30 -35 40 -68 23z"/>
<path d="M7327 5443 c-9 -8 -9 -56 -1 -77 3 -9 12 -16 20 -16 22 0 47 -58 40
-95 -5 -26 -3 -33 12 -37 23 -6 36 -70 23 -114 -7 -27 -4 -33 34 -66 32 -28
45 -34 54 -25 6 6 11 16 11 23 0 6 10 14 23 18 12 3 33 15 46 27 15 14 39 23
68 25 61 5 65 9 58 58 -9 50 -13 55 -50 56 -43 1 -153 -25 -135 -32 9 -4 5 -7
-12 -7 -29 -1 -58 30 -58 61 0 10 -11 23 -25 28 -20 8 -25 16 -25 44 0 38 12
46 71 46 21 0 39 5 39 10 0 6 8 10 18 10 21 0 46 50 33 63 -6 6 -31 6 -66 -1
-38 -8 -63 -8 -75 -2 -21 11 -93 14 -103 3z"/>
<path d="M11216 5301 c-14 -15 -14 -20 -3 -30 8 -6 17 -34 21 -61 7 -49 7 -50
41 -50 28 0 37 5 50 30 8 16 26 32 40 36 19 5 22 9 12 18 -7 7 -20 15 -29 19
-10 3 -18 13 -18 22 0 9 -9 15 -24 15 -14 0 -28 5 -31 10 -10 16 -40 12 -59
-9z"/>
<path d="M7769 5173 c-15 -39 -8 -56 27 -65 17 -4 37 -15 44 -23 11 -13 10
-14 -1 -10 -10 4 -18 -9 -27 -47 -11 -46 -10 -54 8 -82 11 -17 20 -27 20 -22
0 6 6 1 14 -9 8 -11 12 -24 9 -30 -2 -7 22 -16 66 -24 41 -8 72 -18 75 -27 7
-19 80 -18 100 1 14 14 20 14 62 0 30 -10 59 -13 83 -9 20 4 30 9 24 11 -8 3
-13 21 -13 44 0 27 -4 39 -15 39 -8 0 -25 11 -39 25 -14 14 -39 28 -56 31 -16
4 -30 13 -30 20 0 8 -4 14 -10 14 -5 0 -10 11 -10 25 0 21 -5 25 -28 25 -15 0
-45 10 -67 21 -21 12 -59 24 -83 28 -30 4 -49 13 -56 26 -14 26 -26 34 -41 29
-7 -3 -15 4 -18 15 -7 29 -26 26 -38 -6z"/>
<path d="M11445 5136 c-17 -13 -39 -25 -50 -27 -17 -4 -21 -13 -23 -58 -3 -49
-5 -53 -25 -46 -57 17 -65 17 -77 -4 -6 -12 -15 -19 -19 -16 -22 13 -21 -101
0 -115 5 -3 13 -44 18 -90 6 -51 15 -88 23 -94 27 -21 28 -45 2 -76 -14 -16
-32 -30 -40 -30 -8 0 -19 -12 -25 -26 -5 -15 -12 -24 -15 -21 -4 3 -13 -1 -21
-9 -21 -20 -10 -116 17 -154 19 -26 20 -45 20 -275 0 -236 -4 -278 -31 -295
-13 -9 -25 -319 -19 -485 4 -82 3 -217 -1 -299 -4 -82 -5 -155 -2 -162 3 -8 1
-14 -4 -14 -5 0 -25 -13 -43 -30 -18 -16 -37 -30 -42 -30 -4 0 -8 -6 -8 -14 0
-8 -9 -21 -20 -29 -14 -10 -26 -42 -42 -113 -24 -110 -28 -176 -10 -182 20 -6
15 -80 -7 -91 -10 -6 -22 -22 -25 -36 -4 -15 -16 -27 -31 -31 -14 -3 -25 -10
-25 -14 0 -4 -15 -10 -32 -13 -18 -3 -52 -10 -76 -16 -30 -8 -55 -8 -80 -2
-20 6 -50 13 -66 16 -23 5 -27 8 -15 16 11 7 10 9 -6 9 -11 0 -25 10 -30 22
-6 13 -21 28 -34 34 -13 7 -26 17 -30 22 -3 6 -32 22 -63 36 -32 15 -58 30
-58 35 0 19 -154 41 -310 45 -54 1 -54 1 -65 -34 -5 -19 -15 -44 -21 -55 -6
-11 -14 -39 -18 -62 -6 -41 -5 -43 18 -43 14 0 28 5 31 10 8 13 30 -8 39 -38
4 -12 18 -25 32 -28 13 -3 24 -12 24 -19 0 -16 23 -25 66 -25 24 0 34 -5 34
-15 0 -9 15 -22 33 -30 17 -8 26 -14 19 -15 -7 0 -10 -5 -7 -10 4 -6 10 -8 15
-5 4 3 18 -11 30 -30 12 -19 28 -35 36 -35 8 0 14 -6 14 -12 0 -7 18 -22 40
-32 22 -11 39 -24 37 -30 -4 -11 25 -101 36 -112 3 -4 27 5 53 20 25 14 51 26
56 26 19 0 46 37 61 83 15 46 47 91 47 67 0 -6 10 -11 23 -10 12 1 45 2 73 1
48 -1 52 -3 57 -30 3 -16 13 -36 22 -44 16 -16 22 -72 6 -63 -5 3 -11 0 -14
-8 -10 -25 35 -56 81 -56 35 0 44 -4 51 -22 7 -19 14 -21 68 -19 46 2 73 -4
118 -23 31 -14 66 -26 76 -26 18 0 34 -16 34 -35 0 -5 18 -13 40 -19 22 -5 46
-17 53 -28 7 -10 19 -18 27 -18 8 0 19 -9 25 -19 5 -11 19 -23 30 -26 11 -3
20 -13 20 -21 0 -8 13 -20 29 -25 16 -6 31 -19 34 -31 3 -11 10 -17 15 -14 5
3 19 -5 32 -19 12 -13 36 -27 52 -30 76 -17 178 29 163 74 -5 16 -14 21 -44
21 -32 0 -40 5 -61 40 -14 22 -32 40 -40 40 -8 0 -32 18 -54 40 -21 22 -42 37
-47 34 -5 -3 -13 6 -19 20 -10 27 -79 66 -117 66 -17 0 -27 9 -37 35 -9 21
-22 35 -32 35 -10 0 -14 3 -11 7 12 11 -13 31 -33 26 -12 -3 -22 2 -29 16 -7
12 -18 21 -26 21 -8 0 -15 8 -15 18 0 11 -9 27 -20 37 -16 15 -20 31 -20 82 0
56 3 66 20 70 23 6 27 33 5 33 -16 0 -31 43 -20 59 3 6 13 11 21 11 8 0 14 7
14 15 0 14 19 19 73 18 10 0 16 7 15 16 -3 18 32 28 104 30 26 0 50 6 53 12 4
6 21 9 39 8 36 -2 108 7 184 23 94 20 151 99 121 167 -11 24 -23 33 -61 43
-35 8 -48 17 -48 30 0 11 -10 20 -26 24 -52 13 -5 29 85 29 67 0 91 -4 104
-16 8 -9 35 -19 59 -23 23 -4 49 -13 58 -19 8 -7 37 -19 64 -25 27 -7 54 -19
60 -26 6 -7 31 -19 56 -26 25 -7 54 -21 65 -29 47 -37 85 -61 100 -61 8 0 15
-4 15 -9 0 -5 23 -23 50 -40 28 -17 53 -37 56 -44 3 -9 26 -14 63 -15 32 -1
71 -6 86 -12 14 -5 44 -10 66 -10 26 0 42 -5 45 -15 5 -11 21 -15 60 -15 39 0
54 -4 54 -14 0 -8 15 -17 36 -21 44 -8 84 -25 84 -37 0 -4 9 -8 20 -8 11 0 20
-4 20 -8 0 -13 73 -33 80 -22 3 5 11 5 20 0 10 -7 11 -10 3 -10 -24 0 -13 -18
18 -29 17 -6 47 -24 66 -41 19 -17 38 -28 44 -25 5 4 9 -1 9 -9 0 -12 11 -16
49 -16 30 0 51 -5 54 -12 4 -10 8 -10 15 1 8 11 13 5 22 -26 l12 -40 39 15
c35 14 41 14 57 -1 9 -8 32 -17 51 -19 32 -3 35 0 48 36 9 29 10 42 2 47 -6 3
-13 45 -16 92 l-6 86 -74 76 c-42 41 -79 75 -84 75 -14 0 -55 46 -68 78 -10
23 -23 33 -57 42 -24 7 -44 16 -44 20 0 5 -19 15 -42 22 -38 13 -44 19 -53 54
-11 42 -46 94 -63 94 -6 0 -26 10 -46 23 -31 20 -41 35 -33 53 1 3 -13 12 -30
19 -18 8 -33 21 -33 30 0 8 -7 15 -15 15 -8 0 -24 9 -35 20 -26 26 -50 26 -50
0 0 -22 -15 -27 -26 -9 -3 6 -19 9 -34 7 -21 -3 -26 -1 -23 12 6 22 -59 44
-123 41 -36 -2 -54 2 -63 13 -8 9 -28 16 -46 16 -20 0 -35 6 -39 15 -3 8 -17
20 -31 25 -14 5 -28 18 -32 27 -11 29 -21 31 -133 28 -105 -4 -135 2 -135 27
0 9 -12 12 -37 10 -78 -6 -188 15 -229 44 -39 27 -53 30 -152 35 -50 2 -67 -8
-67 -42 0 -11 -12 -19 -34 -23 -41 -8 -69 2 -62 21 3 8 6 17 6 19 0 2 9 4 20
4 12 0 25 10 32 25 9 20 18 25 50 25 29 0 38 4 38 18 0 9 3 26 6 38 3 12 -1
28 -10 37 -10 10 -12 18 -6 22 16 10 12 23 -10 30 -11 4 -18 11 -15 16 7 11
-47 36 -98 44 -21 3 -40 12 -43 19 -3 8 -18 16 -35 20 -16 3 -29 12 -29 20 0
9 -17 20 -42 27 -72 21 -83 40 -32 59 14 6 24 18 24 30 0 15 7 20 25 20 20 0
25 5 25 25 0 14 -4 25 -10 25 -21 0 -9 27 18 41 15 8 31 20 35 26 11 17 67 17
67 0 0 -8 -12 -20 -26 -27 l-26 -14 22 -18 c16 -13 40 -18 86 -18 59 0 87 11
64 25 -15 9 41 66 65 64 11 -1 34 1 50 5 17 4 40 9 53 12 14 3 22 12 22 24 0
18 7 20 63 21 65 1 88 3 115 14 31 12 -17 28 -75 26 -113 -4 -164 26 -83 50
22 7 40 18 40 25 0 15 53 31 135 42 92 12 67 24 -58 27 -85 2 -119 0 -125 -9
-8 -14 -102 -53 -115 -48 -5 1 -6 -2 -3 -7 8 -12 -30 -20 -126 -26 -73 -4 -78
-3 -78 15 0 11 4 20 10 20 14 0 33 39 41 85 3 22 10 48 14 58 5 12 3 17 -8 17
-10 0 -13 7 -10 20 5 17 0 20 -26 20 -28 0 -31 3 -31 29 0 20 6 30 20 34 14 3
20 14 20 32 0 19 -4 26 -14 22 -9 -4 -16 4 -20 24 -4 19 -15 33 -33 41 l-28
12 28 4 c22 3 27 8 27 33 0 22 5 29 20 29 16 0 19 5 15 30 -3 17 -7 43 -10 59
-5 36 4 46 21 23 12 -15 13 -14 14 11 0 15 9 37 20 49 32 34 25 54 -24 74
l-44 18 29 18 c17 10 49 18 75 18 37 0 46 4 54 23 11 29 -15 53 -70 62 -43 7
-52 20 -20 28 16 4 20 14 20 47 0 39 -2 42 -24 38 -22 -4 -23 -3 -15 19 11 29
12 49 2 39 -4 -4 -13 8 -19 26 -6 18 -17 33 -25 33 -8 0 -15 12 -17 30 -2 16
-15 39 -28 52 -13 12 -24 31 -24 43 0 13 -9 24 -25 30 -15 6 -25 17 -25 30 0
28 -37 26 -75 -4z"/>
<path d="M7569 4837 c-9 -18 -23 -31 -33 -31 -9 1 -16 -2 -16 -7 0 -5 -7 -9
-15 -9 -8 0 -15 4 -15 10 0 11 -42 23 -83 24 -25 1 -31 -5 -44 -39 -24 -63
-28 -105 -10 -105 8 0 17 -8 20 -19 5 -20 58 -51 91 -52 20 0 20 -1 2 -8 -18
-7 -18 -8 -2 -14 11 -4 16 -13 12 -22 -3 -8 5 -22 17 -32 13 -10 26 -26 30
-35 9 -24 41 -23 88 4 37 21 39 21 59 3 18 -16 20 -16 26 -1 3 9 31 23 63 32
31 9 60 20 66 25 10 10 95 12 119 3 23 -9 21 -67 -4 -89 -16 -14 -23 -15 -34
-6 -17 14 -36 7 -36 -13 0 -8 -14 -19 -31 -26 -17 -7 -35 -24 -40 -37 -9 -26
-26 -28 -83 -12 -43 12 -58 2 -48 -33 4 -17 10 -19 48 -13 36 5 44 3 44 -9 0
-9 5 -16 11 -16 7 0 8 -11 4 -29 -5 -25 -2 -31 27 -45 28 -15 45 -15 123 -6
49 6 124 9 165 6 41 -2 124 1 183 5 98 8 113 7 154 -11 24 -11 42 -24 38 -29
-3 -6 2 -22 11 -36 10 -15 25 -41 33 -58 9 -18 23 -31 30 -29 19 4 61 -26 61
-43 0 -8 9 -20 20 -27 11 -7 20 -23 20 -36 0 -15 7 -26 19 -29 11 -3 17 -11
15 -18 -3 -8 7 -19 23 -27 15 -7 34 -26 41 -41 7 -15 19 -27 27 -27 8 0 18 -7
23 -15 6 -12 18 -14 50 -9 38 6 42 9 42 35 0 41 -41 118 -62 119 -25 0 -23 26
2 33 40 10 20 56 -38 86 -19 10 -28 9 -48 -4 -25 -16 -26 -16 -37 14 -6 17
-16 31 -22 32 -29 2 -61 11 -69 19 -6 6 -16 10 -24 10 -36 0 -52 57 -30 105
12 27 27 32 45 14 7 -7 27 -9 55 -4 23 4 71 8 106 9 40 2 68 8 78 18 35 35 0
39 -387 43 -206 2 -392 7 -414 11 l-40 7 30 13 c17 7 41 13 55 14 14 0 40 9
58 20 41 25 143 28 162 5 14 -17 50 -20 50 -5 0 6 11 15 25 20 31 12 32 37 2
60 -13 10 -29 38 -36 61 l-13 41 -39 -42 c-21 -23 -39 -46 -39 -51 0 -5 -20
-9 -45 -9 l-45 0 0 45 c0 35 3 43 15 39 11 -5 15 1 15 20 0 14 5 35 12 45 15
24 4 51 -22 51 -11 0 -20 5 -20 11 0 7 -31 9 -92 7 -90 -3 -94 -2 -120 25 -23
23 -31 26 -48 17 -15 -8 -20 -8 -20 3 0 17 -44 42 -59 33 -6 -4 -11 -19 -11
-34 0 -15 -5 -44 -11 -65 -11 -42 -2 -40 -99 -21 -17 3 -28 10 -24 15 3 5 0 9
-7 9 -16 0 -3 79 17 101 14 16 14 18 -3 27 -10 5 -30 12 -44 16 -15 3 -29 15
-32 26 -7 28 -20 24 -38 -13z m43 -128 c19 -10 18 -34 -4 -91 -12 -31 -32 -35
-85 -16 -27 10 -33 17 -33 41 0 16 8 42 18 59 15 26 21 29 52 23 19 -4 43 -11
52 -16z"/>
<path d="M12025 4699 c-4 -6 2 -13 14 -16 12 -3 21 -9 21 -14 0 -5 7 -9 15 -9
21 0 31 -30 14 -41 -9 -6 -10 -12 -4 -16 6 -5 15 -17 21 -27 10 -20 38 -31
101 -41 28 -4 33 -2 33 16 0 21 -46 68 -67 69 -13 0 -17 16 -14 56 2 15 -5 23
-21 28 -37 9 -106 7 -113 -5z"/>
<path d="M11894 4379 c-18 -5 -34 -17 -37 -27 -3 -12 -21 -24 -50 -33 -42 -12
-73 -39 -45 -39 7 0 -10 -20 -37 -45 -28 -25 -43 -45 -35 -45 43 0 191 22 230
35 25 8 57 17 72 20 15 3 33 11 40 18 7 7 32 18 56 25 43 13 54 28 26 39 -8 3
-13 11 -10 18 5 15 -24 25 -74 25 -27 0 -32 -3 -20 -11 11 -8 9 -9 -10 -3 -14
3 -29 13 -33 20 -9 16 -27 16 -73 3z"/>
<path d="M9113 4223 c-18 -7 -16 -23 2 -23 9 0 20 -11 25 -25 5 -14 16 -25 25
-25 9 0 15 -9 15 -26 0 -18 6 -28 20 -31 14 -4 24 -19 32 -49 7 -26 19 -46 30
-50 10 -3 18 -14 18 -25 0 -12 7 -19 20 -19 13 0 22 -9 26 -25 9 -38 40 -33
48 9 8 40 -1 66 -20 66 -8 0 -18 8 -21 18 -4 9 -17 28 -30 42 -13 14 -26 35
-29 46 -3 12 -16 26 -30 33 -13 6 -24 18 -24 26 0 9 -12 18 -30 22 -16 3 -30
11 -30 18 0 10 -25 28 -33 24 -1 0 -8 -3 -14 -6z"/>
<path d="M12343 3743 c-7 -2 -13 -12 -13 -21 0 -25 -46 -43 -77 -31 -31 12
-122 1 -102 -12 10 -6 5 -9 -16 -10 -135 -5 -148 -8 -178 -30 -21 -15 -46 -23
-81 -24 -45 -2 -52 -5 -60 -28 -8 -22 -17 -27 -63 -33 -30 -3 -66 -4 -82 -1
-31 6 -91 -24 -91 -45 1 -17 25 -49 32 -42 13 12 81 -10 102 -33 18 -19 31
-24 62 -21 31 2 39 7 40 23 1 11 3 25 4 30 1 6 3 21 3 35 l2 25 125 0 c84 0
132 -4 145 -12 11 -7 29 -13 40 -13 11 0 31 -7 45 -15 14 -7 40 -21 58 -29 18
-8 36 -25 40 -36 8 -21 9 -21 21 6 10 22 14 25 21 13 7 -11 13 -4 26 29 18 45
25 49 46 28 8 -8 26 -11 46 -8 26 3 36 -1 54 -23 18 -23 27 -26 55 -22 24 4
33 2 33 -8 0 -13 11 -18 72 -30 49 -9 61 89 12 101 -13 3 -24 12 -24 20 0 8
-4 14 -10 14 -13 0 -90 70 -90 82 0 10 -58 88 -75 100 -7 5 -7 8 0 9 6 0 1 4
-10 9 -22 9 -92 11 -112 3z"/>
<path d="M12907 3603 c-14 -14 -6 -61 13 -78 11 -10 20 -28 20 -39 0 -13 12
-28 30 -38 17 -9 30 -24 30 -31 0 -8 6 -17 14 -20 8 -3 17 -23 21 -45 4 -28
12 -42 26 -45 10 -3 23 -16 28 -30 5 -14 15 -28 21 -32 7 -4 18 -23 26 -41 13
-30 18 -34 42 -28 15 4 28 8 29 9 2 1 6 50 9 108 6 90 4 107 -8 107 -14 0 -38
58 -38 91 0 8 -14 20 -30 26 -26 10 -30 15 -24 37 4 17 2 26 -6 26 -6 0 -8 -4
-5 -10 3 -5 1 -10 -4 -10 -6 0 -11 -9 -11 -20 0 -33 -28 -36 -59 -6 -15 14
-32 26 -39 26 -7 0 -12 4 -12 10 0 5 -13 16 -30 25 -33 17 -34 17 -43 8z"/>
<path d="M9105 2679 c-22 -5 -57 -11 -78 -14 -21 -3 -35 -10 -32 -14 9 -15
-25 -21 -161 -28 -74 -3 -132 -8 -129 -11 2 -3 -10 -13 -28 -22 -39 -21 -48
-61 -18 -82 11 -8 25 -35 31 -62 6 -26 17 -57 25 -70 8 -12 19 -46 25 -76 6
-29 16 -61 24 -69 8 -9 20 -42 27 -73 13 -57 14 -58 49 -58 25 0 39 6 48 20
16 26 25 20 52 -35 l22 -45 54 0 54 0 0 -38 c0 -59 22 -82 78 -82 27 -1 62 -9
82 -20 19 -11 31 -19 25 -20 -5 0 -3 -6 5 -13 9 -7 29 -30 45 -52 46 -63 50
-65 157 -65 84 0 99 -2 107 -19 8 -14 26 -19 78 -23 78 -6 379 5 389 14 8 9
-15 78 -27 78 -5 0 -9 8 -9 18 0 18 -32 34 -98 47 -18 4 -30 11 -26 16 3 5 -3
12 -13 16 -10 3 -30 19 -46 35 -15 15 -34 28 -42 28 -8 0 -15 7 -15 15 0 8 -6
15 -14 15 -7 0 -19 -7 -26 -15 -19 -23 -47 -18 -54 10 -4 16 -13 25 -26 25
-11 0 -20 7 -20 15 0 8 -4 15 -10 15 -5 0 -10 5 -10 11 0 7 -8 18 -17 25 -17
13 -17 15 1 29 18 14 18 15 2 15 -14 0 -17 7 -14 38 2 29 7 37 22 37 11 0 21
6 24 13 2 6 -1 12 -7 12 -6 0 -11 14 -11 30 0 23 -5 30 -19 30 -11 0 -21 9
-24 22 -5 18 -8 19 -21 8 -14 -11 -16 -7 -16 33 0 27 6 49 15 57 32 27 17 40
-43 40 l-58 0 4 35 c4 33 6 35 43 35 28 0 39 -4 39 -15 0 -8 4 -15 9 -15 5 0
11 -9 14 -20 3 -11 13 -20 22 -20 13 0 16 6 11 23 -3 12 -6 33 -6 46 0 22 -3
23 -42 17 -34 -6 -40 -4 -31 5 9 9 7 18 -11 40 -13 16 -26 33 -28 39 -2 6 -41
18 -88 27 -47 9 -87 20 -90 24 -3 5 -26 11 -50 14 -25 4 -54 8 -65 9 -11 2
-38 -1 -60 -5z"/>
<path d="M11704 2325 c4 -11 -1 -15 -18 -15 -13 0 -29 -7 -36 -15 -10 -12 -36
-15 -129 -14 -144 2 -141 2 -141 -16 0 -8 -14 -24 -32 -35 -18 -11 -33 -29
-35 -42 -3 -25 45 -88 68 -88 22 -1 53 -21 107 -71 48 -44 53 -46 114 -47 42
-1 76 -8 103 -22 26 -13 59 -20 97 -20 44 0 63 -5 78 -20 11 -11 31 -22 46
-26 17 -4 22 -9 14 -14 -8 -5 9 -14 41 -25 60 -20 81 -33 73 -46 -3 -5 11 -9
30 -9 40 0 76 -25 76 -52 0 -12 14 -21 43 -29 52 -16 113 -66 109 -91 -2 -11
3 -18 12 -18 8 0 23 -11 34 -25 22 -28 42 -33 42 -10 0 8 4 15 9 15 5 0 14 -7
21 -15 7 -8 22 -15 34 -15 15 0 25 -10 33 -31 7 -17 17 -28 23 -24 5 3 13 -2
17 -12 3 -10 13 -26 21 -35 8 -10 11 -18 6 -18 -22 -1 24 -20 47 -20 15 0 38
-9 53 -21 14 -11 49 -29 77 -39 28 -9 54 -22 58 -27 3 -6 23 -13 44 -17 20 -4
37 -13 37 -20 0 -7 19 -19 43 -26 23 -7 47 -19 52 -25 6 -6 28 -18 50 -27 22
-9 39 -21 38 -27 -2 -6 17 -16 41 -22 25 -6 47 -17 50 -25 3 -7 26 -19 51 -25
26 -7 49 -18 52 -25 3 -8 23 -19 44 -24 22 -6 39 -17 39 -25 0 -9 16 -16 46
-21 25 -3 48 -12 51 -20 2 -7 21 -18 41 -25 21 -6 54 -22 74 -35 21 -13 44
-24 53 -24 8 0 15 -4 15 -10 0 -5 8 -10 17 -10 9 0 24 -6 32 -13 27 -22 124
-57 186 -67 34 -6 63 -16 67 -25 5 -8 20 -15 33 -15 35 0 54 -10 49 -25 -4 -8
5 -15 25 -20 34 -7 51 -1 51 21 0 8 5 14 12 14 6 0 8 -3 5 -7 -4 -3 0 -14 9
-24 19 -21 54 -14 54 11 0 14 11 20 50 25 39 5 50 11 50 25 0 10 7 23 15 30
17 14 20 50 5 50 -5 0 -15 20 -21 45 -7 26 -20 50 -31 56 -10 5 -16 14 -12 20
3 5 -1 20 -9 32 -8 12 -17 47 -21 77 -12 95 -29 180 -38 180 -4 0 -8 7 -8 15
0 8 -4 15 -8 15 -5 0 -14 18 -21 40 -7 23 -18 40 -26 40 -8 0 -15 8 -15 18 0
36 -21 92 -35 92 -8 0 -17 11 -21 25 -4 17 -13 25 -29 25 -12 0 -28 7 -35 15
-7 8 -16 15 -21 15 -5 0 -9 -7 -9 -15 0 -23 -65 -19 -112 7 -29 17 -41 19 -47
10 -5 -9 -22 3 -55 38 -26 27 -53 50 -61 50 -7 0 -18 -15 -24 -32 -8 -23 -14
-29 -20 -20 -6 10 -12 7 -24 -12 -17 -25 -17 -25 -61 -10 -25 9 -50 22 -57 30
-6 8 -30 14 -53 15 -56 1 -91 12 -91 28 0 18 -30 29 -85 31 -25 1 -37 4 -27 7
9 2 17 9 17 14 0 13 -37 11 -45 -2 -5 -7 -15 -4 -29 9 -12 11 -51 25 -91 33
-101 19 -112 23 -120 49 -3 9 -26 25 -50 35 -25 9 -43 20 -41 24 3 4 -17 13
-44 20 -28 7 -50 17 -50 22 0 4 -18 13 -40 19 -22 6 -51 22 -66 35 -14 13 -39
27 -55 30 -17 4 -33 13 -36 21 -3 8 -11 14 -18 14 -15 0 -73 29 -92 47 -7 6
-27 15 -45 18 -18 4 -37 14 -43 22 -5 7 -28 16 -50 20 -22 3 -43 12 -47 18 -4
7 -28 19 -53 26 -25 7 -45 18 -45 25 0 14 -44 34 -75 34 -13 0 -27 5 -30 11
-4 5 -18 14 -31 19 -13 5 -23 15 -22 22 4 17 -215 35 -220 19 -5 -16 -22 -13
-22 4 0 10 -10 15 -31 15 -24 0 -30 -4 -25 -15z"/>
<path d="M11132 1699 c-15 -24 -2 -71 28 -101 10 -9 20 -35 24 -58 3 -22 10
-39 15 -36 10 6 31 -37 31 -65 0 -10 9 -27 20 -36 11 -10 20 -30 20 -44 0 -37
10 -59 26 -59 7 0 15 -16 19 -37 9 -57 19 -87 29 -84 12 4 26 -20 26 -47 0
-12 11 -44 24 -70 14 -26 28 -75 32 -112 5 -44 9 -58 14 -45 6 15 9 9 14 -25
11 -73 47 -243 57 -268 5 -13 9 -56 9 -97 0 -47 4 -75 12 -77 11 -4 36 -141
37 -205 1 -25 5 -33 20 -33 21 0 31 -35 31 -111 0 -27 5 -49 10 -49 6 0 10 -9
10 -20 0 -14 7 -20 21 -20 17 0 20 5 17 25 -3 13 -1 22 3 19 5 -3 9 -14 9 -25
0 -18 9 -19 190 -19 183 0 190 1 190 20 0 11 -6 20 -13 20 -14 0 -37 80 -37
131 0 16 -4 29 -10 29 -5 0 -10 7 -10 15 0 8 4 15 10 15 6 0 8 25 5 63 -5 74
-14 107 -27 107 -6 0 -8 9 -5 20 3 10 0 21 -7 23 -7 3 -6 14 7 37 17 31 17 32
-6 50 -20 16 -24 29 -25 84 -1 39 2 66 8 66 5 0 10 8 10 17 0 9 8 25 17 35 10
12 13 22 8 26 -24 17 -64 81 -53 84 6 2 8 10 4 16 -10 17 -24 15 -29 -5 -3
-10 -5 -1 -6 20 -1 24 -7 40 -17 44 -13 5 -15 16 -9 62 4 31 13 63 21 72 13
15 12 22 -8 63 -18 38 -27 46 -50 46 -16 0 -41 12 -61 30 -19 16 -40 30 -45
30 -6 0 -17 10 -23 23 -25 46 -63 77 -95 77 -26 0 -33 6 -50 43 -14 31 -27 44
-51 51 -17 6 -34 18 -36 28 -3 10 -14 18 -26 18 -14 0 -25 9 -31 25 -5 14 -17
25 -27 25 -22 1 -53 23 -53 39 0 6 -4 11 -8 11 -4 0 -16 22 -26 49 -16 44 -21
50 -49 53 -20 2 -32 9 -32 18 0 17 -40 40 -70 40 -11 0 -26 -9 -33 -21z"/>
<path d="M10898 1463 c-8 -10 -18 -26 -21 -35 -4 -10 -13 -18 -22 -18 -8 0
-22 -18 -31 -40 -9 -22 -19 -38 -24 -35 -4 2 -13 -8 -19 -23 -12 -25 -14 -26
-26 -9 -12 16 -13 16 -19 -8 -6 -23 -11 -25 -60 -25 -51 0 -56 -2 -76 -36 -14
-21 -28 -33 -36 -30 -25 10 -44 -5 -44 -35 0 -28 -48 -89 -70 -89 -5 0 -10 -4
-10 -9 0 -16 -37 -19 -70 -5 -18 8 -40 14 -50 14 -17 0 -40 -38 -40 -65 0 -10
-10 -15 -30 -15 -28 0 -30 -2 -30 -39 0 -25 -5 -41 -15 -45 -12 -4 -13 -10 -1
-38 11 -24 23 -35 45 -39 27 -6 34 -3 45 18 10 20 21 25 59 28 26 1 57 9 70
17 12 8 41 20 65 28 24 7 48 22 53 31 5 10 16 16 24 13 8 -3 25 5 38 20 13 14
36 30 51 36 15 5 25 14 21 19 -3 5 5 13 17 16 13 4 55 41 93 81 39 41 76 74
83 74 7 0 12 9 12 19 0 11 4 22 9 26 35 21 68 150 49 191 -13 29 -20 30 -40 7z"/>
<path d="M11859 1366 c-3 -3 -3 -23 0 -43 5 -29 13 -40 46 -57 22 -11 45 -27
51 -34 8 -10 45 -17 127 -22 110 -7 155 -20 141 -41 -3 -5 -1 -9 3 -9 5 0 7
-18 5 -40 -3 -25 0 -40 7 -40 6 0 10 -8 9 -17 -6 -41 14 -113 33 -123 10 -6
19 -21 19 -34 0 -13 9 -33 20 -46 11 -13 23 -35 26 -49 4 -14 12 -30 19 -36
18 -15 35 -51 35 -74 0 -14 6 -21 19 -21 15 0 20 -10 26 -50 4 -28 13 -53 20
-58 18 -10 26 -44 15 -62 -9 -15 -25 -7 -25 13 0 14 -47 21 -80 13 -13 -3 -26
-14 -30 -23 -10 -26 -32 -112 -39 -158 -11 -61 -16 -75 -31 -75 -18 0 -23 -44
-15 -142 3 -50 10 -83 18 -86 7 -2 12 -15 12 -28 0 -23 2 -24 85 -24 78 0 85
2 85 20 0 16 7 20 35 20 34 0 35 1 35 38 0 20 7 50 15 66 8 15 15 36 16 45 1
26 28 -91 29 -126 0 -68 -36 -63 476 -63 457 0 464 0 464 20 0 13 -7 20 -20
20 -14 0 -20 9 -25 38 -11 70 -25 87 -78 90 -33 2 -47 7 -47 18 0 7 -4 14 -8
14 -5 0 -14 17 -20 38 -7 21 -21 47 -32 57 -11 10 -20 24 -20 32 0 7 -4 13 -8
13 -17 0 -52 41 -52 61 0 11 -15 35 -32 53 -72 72 -148 155 -148 161 0 4 -11
16 -24 26 -13 10 -32 42 -42 70 -13 36 -30 59 -56 78 -21 14 -38 32 -38 39 0
6 -5 12 -11 12 -6 0 -20 11 -31 25 -11 14 -25 25 -33 25 -7 0 -18 7 -25 15 -7
8 -21 15 -31 15 -11 0 -19 6 -19 13 0 9 -3 8 -9 -2 -7 -10 -11 -6 -16 17 -3
17 -12 33 -18 36 -65 31 -92 55 -95 84 -4 35 -12 43 -67 61 -60 21 -71 36 -55
75 27 64 16 94 -45 127 -48 26 -201 41 -292 28 -10 -1 -74 1 -143 6 -69 4
-128 4 -131 1z"/>
<path d="M14062 332 c-23 -3 -46 -34 -35 -46 3 -3 -19 -6 -50 -6 l-57 0 0 -40
c0 -33 4 -40 19 -40 26 0 34 -27 12 -39 -10 -6 -21 -7 -25 -4 -3 3 -6 1 -6 -5
0 -7 -3 -11 -7 -9 -5 1 -10 -2 -12 -8 -2 -5 -12 -16 -22 -23 -14 -10 -19 -26
-19 -63 l0 -49 155 0 c179 0 172 -4 175 106 2 87 1 94 -15 94 -8 0 -15 8 -15
19 0 12 -9 21 -27 24 -16 4 -35 11 -43 17 -13 9 -12 13 8 27 12 8 22 19 22 24
0 13 -33 25 -58 21z"/>
<path d="M10980 141 c-19 -4 -34 -12 -33 -18 2 -6 -13 -17 -32 -23 -27 -9 -35
-17 -35 -36 0 -13 5 -24 10 -24 6 0 10 -9 10 -20 0 -19 7 -20 116 -20 l116 0
-7 38 c-4 20 -13 44 -21 53 -19 21 -18 29 4 30 20 1 -56 28 -78 27 -8 0 -31
-4 -50 -7z"/>
</g>
</svg>
